<mxfile host="app.diagrams.net" modified="2022-12-22T18:49:53.285Z" agent="5.0 (Windows NT 10.0; Win64; x64) AppleWebKit/537.36 (KHTML, like Gecko) Chrome/108.0.0.0 Safari/537.36" etag="2n6sLiQE03cGtLdLioYQ" version="20.7.4" type="github" pages="4">
  <diagram name="Page-1" id="03018318-947c-dd8e-b7a3-06fadd420f32">
    <mxGraphModel dx="1235" dy="636" grid="1" gridSize="10" guides="1" tooltips="1" connect="1" arrows="1" fold="1" page="1" pageScale="1" pageWidth="1100" pageHeight="850" background="none" math="0" shadow="0">
      <root>
        <mxCell id="0" />
        <mxCell id="1" parent="0" />
        <mxCell id="XYzLR4gQ-u4L-k7xtCeb-39" value="&lt;blockquote style=&quot;margin: 0px 0px 0px 40px; border: none; padding: 0px; font-size: 14px;&quot;&gt;&lt;blockquote style=&quot;margin: 0px 0px 0px 40px; border: none; padding: 0px; font-size: 14px;&quot;&gt;&lt;div style=&quot;font-size: 14px;&quot;&gt;&lt;span style=&quot;text-align: left; text-indent: -0.25in; background-color: initial; color: black;&quot;&gt;The option &quot;Cancel Resource&quot; should be available to the Planner or PMO if the status is equal to &quot;Active&quot; or &quot;Planned&quot;.&lt;/span&gt;&lt;/div&gt;&lt;div style=&quot;font-size: 14px;&quot;&gt;&lt;span style=&quot;color: black; text-align: left; text-indent: -0.25in; background-color: initial;&quot;&gt;If the status is equal to &quot;Active&quot; the system must change the status of the resource to &quot;Inactive&quot; and record the date of the status change. If the status is equal to &quot;Planned&quot; the system must change the status to &quot;Canceled&quot; and record the date of the status change.&lt;/span&gt;&lt;/div&gt;&lt;/blockquote&gt;&lt;/blockquote&gt;" style="html=1;whiteSpace=wrap;container=1;recursiveResize=0;collapsible=0;shadow=1;labelBackgroundColor=none;sketch=0;fillStyle=auto;strokeColor=#FFFFFF;strokeWidth=1;fontFamily=Verdana;fontSize=14;fontColor=#CCCCCC;fillColor=#FFFFFF;align=center;" vertex="1" parent="1">
          <mxGeometry x="229.5" y="60" width="570.5" height="100" as="geometry" />
        </mxCell>
        <mxCell id="XYzLR4gQ-u4L-k7xtCeb-40" value="" style="triangle;html=1;whiteSpace=wrap;shadow=1;labelBackgroundColor=none;sketch=0;fillStyle=auto;strokeColor=#FFFFFF;strokeWidth=1;fontFamily=Verdana;fontSize=12;fontColor=#CCCCCC;fillColor=#CCCCCC;" vertex="1" parent="XYzLR4gQ-u4L-k7xtCeb-39">
          <mxGeometry x="20" y="20" width="20" height="30" as="geometry" />
        </mxCell>
        <mxCell id="XYzLR4gQ-u4L-k7xtCeb-41" value="" style="rounded=0;whiteSpace=wrap;html=1;strokeWidth=1;fontSize=17;fontColor=#FF0000;movable=1;resizable=1;rotatable=1;deletable=1;editable=1;connectable=1;" vertex="1" parent="1">
          <mxGeometry x="229.5" y="185" width="580" height="640" as="geometry" />
        </mxCell>
        <mxCell id="XYzLR4gQ-u4L-k7xtCeb-42" value="Resource Name" style="text;html=1;points=[];align=left;verticalAlign=top;spacingTop=-4;fontSize=12;fontFamily=Verdana;movable=1;resizable=1;rotatable=1;deletable=1;editable=1;connectable=1;" vertex="1" parent="1">
          <mxGeometry x="274.5" y="315" width="170" height="20" as="geometry" />
        </mxCell>
        <mxCell id="XYzLR4gQ-u4L-k7xtCeb-43" value="EnterpriseID" style="text;html=1;points=[];align=left;verticalAlign=top;spacingTop=-4;fontSize=12;fontFamily=Verdana;movable=1;resizable=1;rotatable=1;deletable=1;editable=1;connectable=1;" vertex="1" parent="1">
          <mxGeometry x="510.5" y="377" width="170" height="20" as="geometry" />
        </mxCell>
        <mxCell id="XYzLR4gQ-u4L-k7xtCeb-44" value="Personnel Number" style="text;html=1;points=[];align=left;verticalAlign=top;spacingTop=-4;fontSize=12;fontFamily=Verdana;movable=1;resizable=1;rotatable=1;deletable=1;editable=1;connectable=1;" vertex="1" parent="1">
          <mxGeometry x="274.5" y="377" width="170" height="20" as="geometry" />
        </mxCell>
        <mxCell id="XYzLR4gQ-u4L-k7xtCeb-45" value="Organization" style="text;html=1;points=[];align=left;verticalAlign=top;spacingTop=-4;fontSize=12;fontFamily=Verdana;movable=1;resizable=1;rotatable=1;deletable=1;editable=1;connectable=1;" vertex="1" parent="1">
          <mxGeometry x="270.5" y="443" width="170" height="20" as="geometry" />
        </mxCell>
        <mxCell id="XYzLR4gQ-u4L-k7xtCeb-46" value="Location" style="text;html=1;points=[];align=left;verticalAlign=top;spacingTop=-4;fontSize=12;fontFamily=Verdana;movable=1;resizable=1;rotatable=1;deletable=1;editable=1;connectable=1;" vertex="1" parent="1">
          <mxGeometry x="510.5" y="443" width="170" height="20" as="geometry" />
        </mxCell>
        <mxCell id="XYzLR4gQ-u4L-k7xtCeb-47" value="Type" style="text;html=1;points=[];align=left;verticalAlign=top;spacingTop=-4;fontSize=12;fontFamily=Verdana;movable=1;resizable=1;rotatable=1;deletable=1;editable=1;connectable=1;" vertex="1" parent="1">
          <mxGeometry x="510.5" y="316" width="170" height="20" as="geometry" />
        </mxCell>
        <mxCell id="XYzLR4gQ-u4L-k7xtCeb-48" value="Profile" style="text;html=1;points=[];align=left;verticalAlign=top;spacingTop=-4;fontSize=12;fontFamily=Verdana;movable=1;resizable=1;rotatable=1;deletable=1;editable=1;connectable=1;" vertex="1" parent="1">
          <mxGeometry x="510.5" y="506" width="170" height="20" as="geometry" />
        </mxCell>
        <mxCell id="XYzLR4gQ-u4L-k7xtCeb-49" value="&lt;font style=&quot;font-size: 12px;&quot;&gt;Career Level Name&amp;nbsp;&lt;/font&gt;" style="text;html=1;points=[];align=left;verticalAlign=top;spacingTop=-4;fontSize=12;fontFamily=Verdana;movable=1;resizable=1;rotatable=1;deletable=1;editable=1;connectable=1;" vertex="1" parent="1">
          <mxGeometry x="270.5" y="506" width="170" height="20" as="geometry" />
        </mxCell>
        <mxCell id="XYzLR4gQ-u4L-k7xtCeb-50" value="&lt;font style=&quot;font-size: 12px;&quot;&gt;Actual Assignment Type&amp;nbsp;&lt;/font&gt;" style="text;html=1;points=[];align=left;verticalAlign=top;spacingTop=-4;fontSize=12;fontFamily=Verdana;movable=1;resizable=1;rotatable=1;deletable=1;editable=1;connectable=1;" vertex="1" parent="1">
          <mxGeometry x="510.5" y="571" width="300" height="20" as="geometry" />
        </mxCell>
        <mxCell id="XYzLR4gQ-u4L-k7xtCeb-51" value="&lt;font style=&quot;font-size: 12px;&quot;&gt;Contract&lt;/font&gt;" style="text;html=1;points=[];align=left;verticalAlign=top;spacingTop=-4;fontSize=12;fontFamily=Verdana;movable=1;resizable=1;rotatable=1;deletable=1;editable=1;connectable=1;" vertex="1" parent="1">
          <mxGeometry x="270.5" y="571" width="200" height="20" as="geometry" />
        </mxCell>
        <mxCell id="XYzLR4gQ-u4L-k7xtCeb-52" value="&lt;font style=&quot;font-size: 12px;&quot;&gt;Onboard date&lt;/font&gt;" style="text;html=1;points=[];align=left;verticalAlign=top;spacingTop=-4;fontSize=12;fontFamily=Verdana;movable=1;resizable=1;rotatable=1;deletable=1;editable=1;connectable=1;" vertex="1" parent="1">
          <mxGeometry x="270.5" y="636.5" width="300" height="20" as="geometry" />
        </mxCell>
        <mxCell id="XYzLR4gQ-u4L-k7xtCeb-53" value="&lt;font style=&quot;font-size: 12px;&quot;&gt;&lt;font style=&quot;font-size: 12px;&quot;&gt;Rolloff&amp;nbsp;&lt;/font&gt;date&lt;/font&gt;" style="text;html=1;points=[];align=left;verticalAlign=top;spacingTop=-4;fontSize=12;fontFamily=Verdana;movable=1;resizable=1;rotatable=1;deletable=1;editable=1;connectable=1;" vertex="1" parent="1">
          <mxGeometry x="510.5" y="633" width="300" height="20" as="geometry" />
        </mxCell>
        <mxCell id="XYzLR4gQ-u4L-k7xtCeb-54" value="" style="group;align=left;fontFamily=Verdana;" vertex="1" connectable="0" parent="1">
          <mxGeometry x="274.5" y="331" width="185" height="30" as="geometry" />
        </mxCell>
        <mxCell id="XYzLR4gQ-u4L-k7xtCeb-55" value="MÃ¡rcia Couto" style="text;html=1;strokeColor=none;fillColor=none;align=left;verticalAlign=middle;whiteSpace=wrap;rounded=0;shadow=1;labelBackgroundColor=none;sketch=0;fillStyle=auto;strokeWidth=1;fontFamily=Verdana;fontSize=12;fontColor=#383838;" vertex="1" parent="XYzLR4gQ-u4L-k7xtCeb-54">
          <mxGeometry x="1" width="110" height="30" as="geometry" />
        </mxCell>
        <mxCell id="XYzLR4gQ-u4L-k7xtCeb-56" value="" style="line;strokeWidth=2;html=1;shadow=1;labelBackgroundColor=none;sketch=0;fillStyle=auto;strokeColor=#FFFFFF;fontFamily=Verdana;fontSize=12;fontColor=#383838;fillColor=#CCCCCC;" vertex="1" parent="XYzLR4gQ-u4L-k7xtCeb-54">
          <mxGeometry y="19" width="185" height="10" as="geometry" />
        </mxCell>
        <mxCell id="XYzLR4gQ-u4L-k7xtCeb-57" value="" style="sketch=0;pointerEvents=1;shadow=0;dashed=0;html=1;strokeColor=none;fillColor=#CCCCCC;labelPosition=center;verticalLabelPosition=bottom;verticalAlign=top;outlineConnect=0;align=center;shape=mxgraph.office.concepts.writing_pencil;labelBackgroundColor=none;fillStyle=auto;strokeWidth=1;fontFamily=Verdana;fontSize=12;fontColor=none;noLabel=1;" vertex="1" parent="XYzLR4gQ-u4L-k7xtCeb-54">
          <mxGeometry x="166" y="5" width="19" height="20" as="geometry" />
        </mxCell>
        <mxCell id="XYzLR4gQ-u4L-k7xtCeb-58" value="" style="group;fontFamily=Verdana;" vertex="1" connectable="0" parent="1">
          <mxGeometry x="274.5" y="392" width="185" height="30" as="geometry" />
        </mxCell>
        <mxCell id="XYzLR4gQ-u4L-k7xtCeb-59" value="007" style="text;html=1;strokeColor=none;fillColor=none;align=left;verticalAlign=middle;whiteSpace=wrap;rounded=0;shadow=1;labelBackgroundColor=none;sketch=0;fillStyle=auto;strokeWidth=1;fontFamily=Verdana;fontSize=12;fontColor=#383838;" vertex="1" parent="XYzLR4gQ-u4L-k7xtCeb-58">
          <mxGeometry x="1" width="110" height="30" as="geometry" />
        </mxCell>
        <mxCell id="XYzLR4gQ-u4L-k7xtCeb-60" value="" style="line;strokeWidth=2;html=1;shadow=1;labelBackgroundColor=none;sketch=0;fillStyle=auto;strokeColor=#FFFFFF;fontFamily=Verdana;fontSize=12;fontColor=#383838;fillColor=#CCCCCC;" vertex="1" parent="XYzLR4gQ-u4L-k7xtCeb-58">
          <mxGeometry y="19" width="185" height="10" as="geometry" />
        </mxCell>
        <mxCell id="XYzLR4gQ-u4L-k7xtCeb-61" value="" style="sketch=0;pointerEvents=1;shadow=0;dashed=0;html=1;strokeColor=none;fillColor=#CCCCCC;labelPosition=center;verticalLabelPosition=bottom;verticalAlign=top;outlineConnect=0;align=center;shape=mxgraph.office.concepts.writing_pencil;labelBackgroundColor=none;fillStyle=auto;strokeWidth=1;fontFamily=Verdana;fontSize=12;fontColor=none;noLabel=1;" vertex="1" parent="XYzLR4gQ-u4L-k7xtCeb-58">
          <mxGeometry x="166" y="5" width="19" height="20" as="geometry" />
        </mxCell>
        <mxCell id="XYzLR4gQ-u4L-k7xtCeb-62" value="" style="group;fontFamily=Verdana;" vertex="1" connectable="0" parent="1">
          <mxGeometry x="270.5" y="459" width="185" height="30" as="geometry" />
        </mxCell>
        <mxCell id="XYzLR4gQ-u4L-k7xtCeb-63" value="Accenture" style="text;html=1;strokeColor=none;fillColor=none;align=left;verticalAlign=middle;whiteSpace=wrap;rounded=0;shadow=1;labelBackgroundColor=none;sketch=0;fillStyle=auto;strokeWidth=1;fontFamily=Verdana;fontSize=12;fontColor=#383838;" vertex="1" parent="XYzLR4gQ-u4L-k7xtCeb-62">
          <mxGeometry x="1" width="110" height="30" as="geometry" />
        </mxCell>
        <mxCell id="XYzLR4gQ-u4L-k7xtCeb-64" value="" style="line;strokeWidth=2;html=1;shadow=1;labelBackgroundColor=none;sketch=0;fillStyle=auto;strokeColor=#FFFFFF;fontFamily=Verdana;fontSize=12;fontColor=#383838;fillColor=#CCCCCC;" vertex="1" parent="XYzLR4gQ-u4L-k7xtCeb-62">
          <mxGeometry y="19" width="185" height="10" as="geometry" />
        </mxCell>
        <mxCell id="XYzLR4gQ-u4L-k7xtCeb-65" value="" style="sketch=0;pointerEvents=1;shadow=0;dashed=0;html=1;strokeColor=none;fillColor=#CCCCCC;labelPosition=center;verticalLabelPosition=bottom;verticalAlign=top;outlineConnect=0;align=center;shape=mxgraph.office.concepts.writing_pencil;labelBackgroundColor=none;fillStyle=auto;strokeWidth=1;fontFamily=Verdana;fontSize=12;fontColor=none;noLabel=1;" vertex="1" parent="XYzLR4gQ-u4L-k7xtCeb-62">
          <mxGeometry x="166" y="5" width="19" height="20" as="geometry" />
        </mxCell>
        <mxCell id="XYzLR4gQ-u4L-k7xtCeb-66" value="" style="group;fontFamily=Verdana;" vertex="1" connectable="0" parent="1">
          <mxGeometry x="269.5" y="522" width="185" height="30" as="geometry" />
        </mxCell>
        <mxCell id="XYzLR4gQ-u4L-k7xtCeb-67" value="Test" style="text;html=1;strokeColor=none;fillColor=none;align=left;verticalAlign=middle;whiteSpace=wrap;rounded=0;shadow=1;labelBackgroundColor=none;sketch=0;fillStyle=auto;strokeWidth=1;fontFamily=Verdana;fontSize=12;fontColor=#383838;" vertex="1" parent="XYzLR4gQ-u4L-k7xtCeb-66">
          <mxGeometry x="1" width="110" height="30" as="geometry" />
        </mxCell>
        <mxCell id="XYzLR4gQ-u4L-k7xtCeb-68" value="" style="line;strokeWidth=2;html=1;shadow=1;labelBackgroundColor=none;sketch=0;fillStyle=auto;strokeColor=#FFFFFF;fontFamily=Verdana;fontSize=12;fontColor=#383838;fillColor=#CCCCCC;" vertex="1" parent="XYzLR4gQ-u4L-k7xtCeb-66">
          <mxGeometry y="19" width="185" height="10" as="geometry" />
        </mxCell>
        <mxCell id="XYzLR4gQ-u4L-k7xtCeb-69" value="" style="sketch=0;pointerEvents=1;shadow=0;dashed=0;html=1;strokeColor=none;fillColor=#CCCCCC;labelPosition=center;verticalLabelPosition=bottom;verticalAlign=top;outlineConnect=0;align=center;shape=mxgraph.office.concepts.writing_pencil;labelBackgroundColor=none;fillStyle=auto;strokeWidth=1;fontFamily=Verdana;fontSize=12;fontColor=none;noLabel=1;" vertex="1" parent="XYzLR4gQ-u4L-k7xtCeb-66">
          <mxGeometry x="166" y="5" width="19" height="20" as="geometry" />
        </mxCell>
        <mxCell id="XYzLR4gQ-u4L-k7xtCeb-70" value="" style="group;fontFamily=Verdana;" vertex="1" connectable="0" parent="1">
          <mxGeometry x="511" y="459" width="185" height="30" as="geometry" />
        </mxCell>
        <mxCell id="XYzLR4gQ-u4L-k7xtCeb-71" value="Braga" style="text;html=1;strokeColor=none;fillColor=none;align=left;verticalAlign=middle;whiteSpace=wrap;rounded=0;shadow=1;labelBackgroundColor=none;sketch=0;fillStyle=auto;strokeWidth=1;fontFamily=Verdana;fontSize=12;fontColor=#383838;" vertex="1" parent="XYzLR4gQ-u4L-k7xtCeb-70">
          <mxGeometry x="1" width="110" height="30" as="geometry" />
        </mxCell>
        <mxCell id="XYzLR4gQ-u4L-k7xtCeb-72" value="" style="line;strokeWidth=2;html=1;shadow=1;labelBackgroundColor=none;sketch=0;fillStyle=auto;strokeColor=#FFFFFF;fontFamily=Verdana;fontSize=12;fontColor=#383838;fillColor=#CCCCCC;" vertex="1" parent="XYzLR4gQ-u4L-k7xtCeb-70">
          <mxGeometry y="19" width="185" height="10" as="geometry" />
        </mxCell>
        <mxCell id="XYzLR4gQ-u4L-k7xtCeb-73" value="" style="sketch=0;pointerEvents=1;shadow=0;dashed=0;html=1;strokeColor=none;fillColor=#CCCCCC;labelPosition=center;verticalLabelPosition=bottom;verticalAlign=top;outlineConnect=0;align=center;shape=mxgraph.office.concepts.writing_pencil;labelBackgroundColor=none;fillStyle=auto;strokeWidth=1;fontFamily=Verdana;fontSize=12;fontColor=none;noLabel=1;" vertex="1" parent="XYzLR4gQ-u4L-k7xtCeb-70">
          <mxGeometry x="166" y="5" width="19" height="20" as="geometry" />
        </mxCell>
        <mxCell id="XYzLR4gQ-u4L-k7xtCeb-74" value="" style="group;fontFamily=Verdana;" vertex="1" connectable="0" parent="1">
          <mxGeometry x="511" y="522" width="185" height="30" as="geometry" />
        </mxCell>
        <mxCell id="XYzLR4gQ-u4L-k7xtCeb-75" value="" style="line;strokeWidth=2;html=1;shadow=1;labelBackgroundColor=none;sketch=0;fillStyle=auto;strokeColor=#FFFFFF;fontFamily=Verdana;fontSize=12;fontColor=#383838;fillColor=#CCCCCC;" vertex="1" parent="XYzLR4gQ-u4L-k7xtCeb-74">
          <mxGeometry y="19" width="185" height="10" as="geometry" />
        </mxCell>
        <mxCell id="XYzLR4gQ-u4L-k7xtCeb-76" value="" style="sketch=0;pointerEvents=1;shadow=0;dashed=0;html=1;strokeColor=none;fillColor=#CCCCCC;labelPosition=center;verticalLabelPosition=bottom;verticalAlign=top;outlineConnect=0;align=center;shape=mxgraph.office.concepts.writing_pencil;labelBackgroundColor=none;fillStyle=auto;strokeWidth=1;fontFamily=Verdana;fontSize=12;fontColor=none;noLabel=1;" vertex="1" parent="XYzLR4gQ-u4L-k7xtCeb-74">
          <mxGeometry x="166" y="5" width="19" height="20" as="geometry" />
        </mxCell>
        <mxCell id="XYzLR4gQ-u4L-k7xtCeb-77" value="" style="group;fontFamily=Verdana;" vertex="1" connectable="0" parent="1">
          <mxGeometry x="511" y="591" width="185" height="30" as="geometry" />
        </mxCell>
        <mxCell id="XYzLR4gQ-u4L-k7xtCeb-78" value="Mockup" style="text;html=1;strokeColor=none;fillColor=none;align=left;verticalAlign=middle;whiteSpace=wrap;rounded=0;shadow=1;labelBackgroundColor=none;sketch=0;fillStyle=auto;strokeWidth=1;fontFamily=Verdana;fontSize=12;fontColor=#383838;" vertex="1" parent="XYzLR4gQ-u4L-k7xtCeb-77">
          <mxGeometry x="1" width="110" height="30" as="geometry" />
        </mxCell>
        <mxCell id="XYzLR4gQ-u4L-k7xtCeb-79" value="" style="line;strokeWidth=2;html=1;shadow=1;labelBackgroundColor=none;sketch=0;fillStyle=auto;strokeColor=#FFFFFF;fontFamily=Verdana;fontSize=12;fontColor=#383838;fillColor=#CCCCCC;" vertex="1" parent="XYzLR4gQ-u4L-k7xtCeb-77">
          <mxGeometry y="19" width="185" height="10" as="geometry" />
        </mxCell>
        <mxCell id="XYzLR4gQ-u4L-k7xtCeb-80" value="" style="sketch=0;pointerEvents=1;shadow=0;dashed=0;html=1;strokeColor=none;fillColor=#CCCCCC;labelPosition=center;verticalLabelPosition=bottom;verticalAlign=top;outlineConnect=0;align=center;shape=mxgraph.office.concepts.writing_pencil;labelBackgroundColor=none;fillStyle=auto;strokeWidth=1;fontFamily=Verdana;fontSize=12;fontColor=none;noLabel=1;" vertex="1" parent="XYzLR4gQ-u4L-k7xtCeb-77">
          <mxGeometry x="166" y="5" width="19" height="20" as="geometry" />
        </mxCell>
        <mxCell id="XYzLR4gQ-u4L-k7xtCeb-81" value="" style="group;fontFamily=Verdana;" vertex="1" connectable="0" parent="1">
          <mxGeometry x="269.5" y="591" width="185" height="30" as="geometry" />
        </mxCell>
        <mxCell id="XYzLR4gQ-u4L-k7xtCeb-82" value="" style="line;strokeWidth=2;html=1;shadow=1;labelBackgroundColor=none;sketch=0;fillStyle=auto;strokeColor=#FFFFFF;fontFamily=Verdana;fontSize=12;fontColor=#383838;fillColor=#CCCCCC;" vertex="1" parent="XYzLR4gQ-u4L-k7xtCeb-81">
          <mxGeometry y="19" width="185" height="10" as="geometry" />
        </mxCell>
        <mxCell id="XYzLR4gQ-u4L-k7xtCeb-83" value="" style="sketch=0;pointerEvents=1;shadow=0;dashed=0;html=1;strokeColor=none;fillColor=#CCCCCC;labelPosition=center;verticalLabelPosition=bottom;verticalAlign=top;outlineConnect=0;align=center;shape=mxgraph.office.concepts.writing_pencil;labelBackgroundColor=none;fillStyle=auto;strokeWidth=1;fontFamily=Verdana;fontSize=12;fontColor=none;noLabel=1;" vertex="1" parent="XYzLR4gQ-u4L-k7xtCeb-81">
          <mxGeometry x="166" y="5" width="19" height="20" as="geometry" />
        </mxCell>
        <mxCell id="XYzLR4gQ-u4L-k7xtCeb-84" value="" style="group;fontFamily=Verdana;" vertex="1" connectable="0" parent="1">
          <mxGeometry x="511" y="653" width="185" height="30" as="geometry" />
        </mxCell>
        <mxCell id="XYzLR4gQ-u4L-k7xtCeb-85" value="&lt;span style=&quot;color: rgba(0, 0, 0, 0); font-size: 0px; text-align: start;&quot;&gt;%3CmxGraphModel%3E%3Croot%3E%3CmxCell%20id%3D%220%22%2F%3E%3CmxCell%20id%3D%221%22%20parent%3D%220%22%2F%3E%3CmxCell%20id%3D%222%22%20value%3D%22Actual%20Bill%20Code%26lt%3Bspan%20style%3D%26quot%3Bfont-size%3A%2014px%3B%26quot%3B%26gt%3B%26amp%3Bnbsp%3B%26lt%3B%2Fspan%26gt%3B%22%20style%3D%22text%3Bhtml%3D1%3Bpoints%3D%5B%5D%3Balign%3Dleft%3BverticalAlign%3Dtop%3BspacingTop%3D-4%3BfontSize%3D14%3BfontFamily%3DVerdana%3B%22%20vertex%3D%221%22%20parent%3D%221%22%3E%3CmxGeometry%20x%3D%22900%22%20y%3D%22869%22%20width%3D%22300%22%20height%3D%2220%22%20as%3D%22geometry%22%2F%3E%3C%2FmxCell%3E%3CmxCell%20id%3D%223%22%20value%3D%22%26lt%3Bfont%20style%3D%26quot%3Bfont-size%3A%2014px%3B%26quot%3B%26gt%3BActual%20%26lt%3Bfont%20style%3D%26quot%3Bfont-size%3A%2014px%3B%26quot%3B%26gt%3BCost%26lt%3B%2Ffont%26gt%3B%26lt%3B%2Ffont%26gt%3B%22%20style%3D%22text%3Bhtml%3D1%3Bpoints%3D%5B%5D%3Balign%3Dleft%3BverticalAlign%3Dtop%3BspacingTop%3D-4%3BfontSize%3D14%3BfontFamily%3DVerdana%3B%22%20vertex%3D%221%22%20parent%3D%221%22%3E%3CmxGeometry%20x%3D%22900%22%20y%3D%22948%22%20width%3D%22300%22%20height%3D%2220%22%20as%3D%22geometry%22%2F%3E%3C%2FmxCell%3E%3CmxCell%20id%3D%224%22%20value%3D%22Status%22%20style%3D%22text%3Bhtml%3D1%3Bpoints%3D%5B%5D%3Balign%3Dleft%3BverticalAlign%3Dtop%3BspacingTop%3D-4%3BfontSize%3D14%3BfontFamily%3DVerdana%3B%22%20vertex%3D%221%22%20parent%3D%221%22%3E%3CmxGeometry%20x%3D%22900%22%20y%3D%22780%22%20width%3D%22300%22%20height%3D%2220%22%20as%3D%22geometry%22%2F%3E%3C%2FmxCell%3E%3C%2Froot%3E%3C%2FmxGraphModel%3E&lt;/span&gt;" style="line;strokeWidth=2;html=1;shadow=1;labelBackgroundColor=none;sketch=0;fillStyle=auto;strokeColor=#FFFFFF;fontFamily=Verdana;fontSize=12;fontColor=#383838;fillColor=#CCCCCC;" vertex="1" parent="XYzLR4gQ-u4L-k7xtCeb-84">
          <mxGeometry y="19" width="185" height="10" as="geometry" />
        </mxCell>
        <mxCell id="XYzLR4gQ-u4L-k7xtCeb-86" value="" style="sketch=0;pointerEvents=1;shadow=0;dashed=0;html=1;strokeColor=none;fillColor=#CCCCCC;labelPosition=center;verticalLabelPosition=bottom;verticalAlign=top;outlineConnect=0;align=center;shape=mxgraph.office.concepts.writing_pencil;labelBackgroundColor=none;fillStyle=auto;strokeWidth=1;fontFamily=Verdana;fontSize=12;fontColor=none;noLabel=1;" vertex="1" parent="XYzLR4gQ-u4L-k7xtCeb-84">
          <mxGeometry x="166" y="5" width="19" height="20" as="geometry" />
        </mxCell>
        <mxCell id="XYzLR4gQ-u4L-k7xtCeb-87" value="Status" style="text;html=1;points=[];align=left;verticalAlign=top;spacingTop=-4;fontSize=12;fontFamily=Verdana;" vertex="1" parent="1">
          <mxGeometry x="269.5" y="700" width="300" height="20" as="geometry" />
        </mxCell>
        <mxCell id="XYzLR4gQ-u4L-k7xtCeb-88" value="Actual Bill Code&lt;span style=&quot;font-size: 12px;&quot;&gt;&amp;nbsp;&lt;/span&gt;" style="text;html=1;points=[];align=left;verticalAlign=top;spacingTop=-4;fontSize=12;fontFamily=Verdana;" vertex="1" parent="1">
          <mxGeometry x="509.5" y="700" width="300" height="20" as="geometry" />
        </mxCell>
        <mxCell id="XYzLR4gQ-u4L-k7xtCeb-89" value="&lt;span style=&quot;color: rgba(0, 0, 0, 0); font-size: 0px; text-align: start;&quot;&gt;%3CmxGraphModel%3E%3Croot%3E%3CmxCell%20id%3D%220%22%2F%3E%3CmxCell%20id%3D%221%22%20parent%3D%220%22%2F%3E%3CmxCell%20id%3D%222%22%20value%3D%22Actual%20Bill%20Code%26lt%3Bspan%20style%3D%26quot%3Bfont-size%3A%2014px%3B%26quot%3B%26gt%3B%26amp%3Bnbsp%3B%26lt%3B%2Fspan%26gt%3B%22%20style%3D%22text%3Bhtml%3D1%3Bpoints%3D%5B%5D%3Balign%3Dleft%3BverticalAlign%3Dtop%3BspacingTop%3D-4%3BfontSize%3D14%3BfontFamily%3DVerdana%3B%22%20vertex%3D%221%22%20parent%3D%221%22%3E%3CmxGeometry%20x%3D%22900%22%20y%3D%22869%22%20width%3D%22300%22%20height%3D%2220%22%20as%3D%22geometry%22%2F%3E%3C%2FmxCell%3E%3CmxCell%20id%3D%223%22%20value%3D%22%26lt%3Bfont%20style%3D%26quot%3Bfont-size%3A%2014px%3B%26quot%3B%26gt%3BActual%20%26lt%3Bfont%20style%3D%26quot%3Bfont-size%3A%2014px%3B%26quot%3B%26gt%3BCost%26lt%3B%2Ffont%26gt%3B%26lt%3B%2Ffont%26gt%3B%22%20style%3D%22text%3Bhtml%3D1%3Bpoints%3D%5B%5D%3Balign%3Dleft%3BverticalAlign%3Dtop%3BspacingTop%3D-4%3BfontSize%3D14%3BfontFamily%3DVerdana%3B%22%20vertex%3D%221%22%20parent%3D%221%22%3E%3CmxGeometry%20x%3D%22900%22%20y%3D%22948%22%20width%3D%22300%22%20height%3D%2220%22%20as%3D%22geometry%22%2F%3E%3C%2FmxCell%3E%3CmxCell%20id%3D%224%22%20value%3D%22Status%22%20style%3D%22text%3Bhtml%3D1%3Bpoints%3D%5B%5D%3Balign%3Dleft%3BverticalAlign%3Dtop%3BspacingTop%3D-4%3BfontSize%3D14%3BfontFamily%3DVerdana%3B%22%20vertex%3D%221%22%20parent%3D%221%22%3E%3CmxGeometry%20x%3D%22900%22%20y%3D%22780%22%20width%3D%22300%22%20height%3D%2220%22%20as%3D%22geometry%22%2F%3E%3C%2FmxCell%3E%3C%2Froot%3E%3C%2FmxGraphModel%3E&lt;/span&gt;" style="line;strokeWidth=2;html=1;shadow=1;labelBackgroundColor=none;sketch=0;fillStyle=auto;strokeColor=#FFFFFF;fontFamily=Verdana;fontSize=12;fontColor=#383838;fillColor=#CCCCCC;" vertex="1" parent="1">
          <mxGeometry x="510.5" y="740" width="185" height="10" as="geometry" />
        </mxCell>
        <mxCell id="XYzLR4gQ-u4L-k7xtCeb-90" value="&lt;span style=&quot;color: rgba(0, 0, 0, 0); font-size: 0px; text-align: start;&quot;&gt;%3CmxGraphModel%3E%3Croot%3E%3CmxCell%20id%3D%220%22%2F%3E%3CmxCell%20id%3D%221%22%20parent%3D%220%22%2F%3E%3CmxCell%20id%3D%222%22%20value%3D%22Actual%20Bill%20Code%26lt%3Bspan%20style%3D%26quot%3Bfont-size%3A%2014px%3B%26quot%3B%26gt%3B%26amp%3Bnbsp%3B%26lt%3B%2Fspan%26gt%3B%22%20style%3D%22text%3Bhtml%3D1%3Bpoints%3D%5B%5D%3Balign%3Dleft%3BverticalAlign%3Dtop%3BspacingTop%3D-4%3BfontSize%3D14%3BfontFamily%3DVerdana%3B%22%20vertex%3D%221%22%20parent%3D%221%22%3E%3CmxGeometry%20x%3D%22900%22%20y%3D%22869%22%20width%3D%22300%22%20height%3D%2220%22%20as%3D%22geometry%22%2F%3E%3C%2FmxCell%3E%3CmxCell%20id%3D%223%22%20value%3D%22%26lt%3Bfont%20style%3D%26quot%3Bfont-size%3A%2014px%3B%26quot%3B%26gt%3BActual%20%26lt%3Bfont%20style%3D%26quot%3Bfont-size%3A%2014px%3B%26quot%3B%26gt%3BCost%26lt%3B%2Ffont%26gt%3B%26lt%3B%2Ffont%26gt%3B%22%20style%3D%22text%3Bhtml%3D1%3Bpoints%3D%5B%5D%3Balign%3Dleft%3BverticalAlign%3Dtop%3BspacingTop%3D-4%3BfontSize%3D14%3BfontFamily%3DVerdana%3B%22%20vertex%3D%221%22%20parent%3D%221%22%3E%3CmxGeometry%20x%3D%22900%22%20y%3D%22948%22%20width%3D%22300%22%20height%3D%2220%22%20as%3D%22geometry%22%2F%3E%3C%2FmxCell%3E%3CmxCell%20id%3D%224%22%20value%3D%22Status%22%20style%3D%22text%3Bhtml%3D1%3Bpoints%3D%5B%5D%3Balign%3Dleft%3BverticalAlign%3Dtop%3BspacingTop%3D-4%3BfontSize%3D14%3BfontFamily%3DVerdana%3B%22%20vertex%3D%221%22%20parent%3D%221%22%3E%3CmxGeometry%20x%3D%22900%22%20y%3D%22780%22%20width%3D%22300%22%20height%3D%2220%22%20as%3D%22geometry%22%2F%3E%3C%2FmxCell%3E%3C%2Froot%3E%3C%2FmxGraphModel%3E&lt;/span&gt;" style="line;strokeWidth=2;html=1;shadow=1;labelBackgroundColor=none;sketch=0;fillStyle=auto;strokeColor=#FFFFFF;fontFamily=Verdana;fontSize=12;fontColor=#383838;fillColor=#CCCCCC;" vertex="1" parent="1">
          <mxGeometry x="269.5" y="740" width="185" height="10" as="geometry" />
        </mxCell>
        <mxCell id="XYzLR4gQ-u4L-k7xtCeb-91" value="Active" style="text;html=1;strokeColor=none;fillColor=none;align=left;verticalAlign=middle;whiteSpace=wrap;rounded=0;shadow=1;labelBackgroundColor=none;sketch=0;fillStyle=auto;strokeWidth=1;fontFamily=Verdana;fontSize=12;fontColor=#383838;" vertex="1" parent="1">
          <mxGeometry x="274.5" y="720" width="110" height="30" as="geometry" />
        </mxCell>
        <mxCell id="XYzLR4gQ-u4L-k7xtCeb-92" value="&lt;span style=&quot;color: rgb(51, 51, 51);&quot;&gt;(Formula)&amp;nbsp;&lt;/span&gt;&lt;span style=&quot;border-color: var(--border-color); color: rgb(51, 51, 51);&quot;&gt;Calculated&lt;br style=&quot;border-color: var(--border-color);&quot;&gt;based on Career Level Resource&lt;/span&gt;" style="text;html=1;strokeColor=none;fillColor=none;align=left;verticalAlign=middle;whiteSpace=wrap;rounded=0;shadow=1;labelBackgroundColor=none;sketch=0;fillStyle=auto;strokeWidth=1;fontFamily=Verdana;fontSize=12;fontColor=#383838;" vertex="1" parent="1">
          <mxGeometry x="509.5" y="720" width="200" height="30" as="geometry" />
        </mxCell>
        <mxCell id="XYzLR4gQ-u4L-k7xtCeb-93" value="" style="group" vertex="1" connectable="0" parent="1">
          <mxGeometry x="269.5" y="212" width="510" height="95" as="geometry" />
        </mxCell>
        <mxCell id="XYzLR4gQ-u4L-k7xtCeb-94" value="Details" style="text;html=1;points=[];align=left;verticalAlign=top;spacingTop=-4;fontSize=14;fontFamily=Verdana;fillColor=#f5f5f5;fontColor=#333333;strokeColor=#666666;movable=1;resizable=1;rotatable=1;deletable=1;editable=1;connectable=1;" vertex="1" parent="XYzLR4gQ-u4L-k7xtCeb-93">
          <mxGeometry y="75" width="510" height="20" as="geometry" />
        </mxCell>
        <mxCell id="XYzLR4gQ-u4L-k7xtCeb-95" value="" style="rounded=0;whiteSpace=wrap;html=1;shadow=1;sketch=0;fillStyle=auto;strokeColor=#666666;strokeWidth=1;fontFamily=Verdana;fontSize=12;fontColor=#333333;fillColor=#f5f5f5;movable=1;resizable=1;rotatable=1;deletable=1;editable=1;connectable=1;" vertex="1" parent="XYzLR4gQ-u4L-k7xtCeb-93">
          <mxGeometry width="510" height="60" as="geometry" />
        </mxCell>
        <mxCell id="XYzLR4gQ-u4L-k7xtCeb-96" value="Resource&lt;br&gt;&lt;font style=&quot;font-size: 17px;&quot; color=&quot;#bfbfbf&quot;&gt;MÃ¡rcia Couto&lt;/font&gt;" style="text;html=1;points=[];align=left;verticalAlign=top;spacingTop=-4;fontSize=20;fontFamily=Verdana;strokeWidth=1;fontStyle=1;movable=1;resizable=1;rotatable=1;deletable=1;editable=1;connectable=1;" vertex="1" parent="XYzLR4gQ-u4L-k7xtCeb-93">
          <mxGeometry x="1" y="1" width="210" height="60" as="geometry" />
        </mxCell>
        <mxCell id="XYzLR4gQ-u4L-k7xtCeb-97" value="" style="group;fontFamily=Verdana;" vertex="1" connectable="0" parent="1">
          <mxGeometry x="510.5" y="332" width="185" height="30" as="geometry" />
        </mxCell>
        <mxCell id="XYzLR4gQ-u4L-k7xtCeb-98" value="" style="line;strokeWidth=2;html=1;shadow=1;labelBackgroundColor=none;sketch=0;fillStyle=auto;strokeColor=#FFFFFF;fontFamily=Verdana;fontSize=12;fontColor=#383838;fillColor=#CCCCCC;" vertex="1" parent="XYzLR4gQ-u4L-k7xtCeb-97">
          <mxGeometry y="19" width="185" height="10" as="geometry" />
        </mxCell>
        <mxCell id="XYzLR4gQ-u4L-k7xtCeb-99" value="" style="sketch=0;pointerEvents=1;shadow=0;dashed=0;html=1;strokeColor=none;fillColor=#CCCCCC;labelPosition=center;verticalLabelPosition=bottom;verticalAlign=top;outlineConnect=0;align=center;shape=mxgraph.office.concepts.writing_pencil;labelBackgroundColor=none;fillStyle=auto;strokeWidth=1;fontFamily=Verdana;fontSize=12;fontColor=none;noLabel=1;" vertex="1" parent="XYzLR4gQ-u4L-k7xtCeb-97">
          <mxGeometry x="166" y="5" width="19" height="20" as="geometry" />
        </mxCell>
        <mxCell id="XYzLR4gQ-u4L-k7xtCeb-110" value="Active" style="text;html=1;strokeColor=none;fillColor=none;align=left;verticalAlign=middle;whiteSpace=wrap;rounded=0;shadow=1;labelBackgroundColor=none;sketch=0;fillStyle=auto;strokeWidth=1;fontFamily=Verdana;fontSize=12;fontColor=#383838;" vertex="1" parent="XYzLR4gQ-u4L-k7xtCeb-97">
          <mxGeometry y="-1" width="110" height="30" as="geometry" />
        </mxCell>
        <mxCell id="XYzLR4gQ-u4L-k7xtCeb-100" value="&lt;font style=&quot;font-size: 12px;&quot;&gt;Actual &lt;font style=&quot;font-size: 12px;&quot;&gt;Cost&lt;/font&gt;&lt;/font&gt;" style="text;html=1;points=[];align=left;verticalAlign=top;spacingTop=-4;fontSize=12;fontFamily=Verdana;" vertex="1" parent="1">
          <mxGeometry x="270.5" y="763" width="300" height="20" as="geometry" />
        </mxCell>
        <mxCell id="XYzLR4gQ-u4L-k7xtCeb-101" value="&lt;span style=&quot;color: rgba(0, 0, 0, 0); font-size: 0px; text-align: start;&quot;&gt;%3CmxGraphModel%3E%3Croot%3E%3CmxCell%20id%3D%220%22%2F%3E%3CmxCell%20id%3D%221%22%20parent%3D%220%22%2F%3E%3CmxCell%20id%3D%222%22%20value%3D%22Actual%20Bill%20Code%26lt%3Bspan%20style%3D%26quot%3Bfont-size%3A%2014px%3B%26quot%3B%26gt%3B%26amp%3Bnbsp%3B%26lt%3B%2Fspan%26gt%3B%22%20style%3D%22text%3Bhtml%3D1%3Bpoints%3D%5B%5D%3Balign%3Dleft%3BverticalAlign%3Dtop%3BspacingTop%3D-4%3BfontSize%3D14%3BfontFamily%3DVerdana%3B%22%20vertex%3D%221%22%20parent%3D%221%22%3E%3CmxGeometry%20x%3D%22900%22%20y%3D%22869%22%20width%3D%22300%22%20height%3D%2220%22%20as%3D%22geometry%22%2F%3E%3C%2FmxCell%3E%3CmxCell%20id%3D%223%22%20value%3D%22%26lt%3Bfont%20style%3D%26quot%3Bfont-size%3A%2014px%3B%26quot%3B%26gt%3BActual%20%26lt%3Bfont%20style%3D%26quot%3Bfont-size%3A%2014px%3B%26quot%3B%26gt%3BCost%26lt%3B%2Ffont%26gt%3B%26lt%3B%2Ffont%26gt%3B%22%20style%3D%22text%3Bhtml%3D1%3Bpoints%3D%5B%5D%3Balign%3Dleft%3BverticalAlign%3Dtop%3BspacingTop%3D-4%3BfontSize%3D14%3BfontFamily%3DVerdana%3B%22%20vertex%3D%221%22%20parent%3D%221%22%3E%3CmxGeometry%20x%3D%22900%22%20y%3D%22948%22%20width%3D%22300%22%20height%3D%2220%22%20as%3D%22geometry%22%2F%3E%3C%2FmxCell%3E%3CmxCell%20id%3D%224%22%20value%3D%22Status%22%20style%3D%22text%3Bhtml%3D1%3Bpoints%3D%5B%5D%3Balign%3Dleft%3BverticalAlign%3Dtop%3BspacingTop%3D-4%3BfontSize%3D14%3BfontFamily%3DVerdana%3B%22%20vertex%3D%221%22%20parent%3D%221%22%3E%3CmxGeometry%20x%3D%22900%22%20y%3D%22780%22%20width%3D%22300%22%20height%3D%2220%22%20as%3D%22geometry%22%2F%3E%3C%2FmxCell%3E%3C%2Froot%3E%3C%2FmxGraphModel%3E&lt;/span&gt;" style="line;strokeWidth=2;html=1;shadow=1;labelBackgroundColor=none;sketch=0;fillStyle=auto;strokeColor=#FFFFFF;fontFamily=Verdana;fontSize=12;fontColor=#383838;fillColor=#CCCCCC;" vertex="1" parent="1">
          <mxGeometry x="270.5" y="803" width="185" height="10" as="geometry" />
        </mxCell>
        <mxCell id="XYzLR4gQ-u4L-k7xtCeb-102" value="&lt;span style=&quot;color: rgb(51, 51, 51);&quot;&gt;(Formula)&amp;nbsp;&lt;/span&gt;&lt;span style=&quot;border-color: var(--border-color); color: rgb(51, 51, 51);&quot;&gt;Calculated&lt;br style=&quot;border-color: var(--border-color);&quot;&gt;based on Career Level Resource&lt;/span&gt;" style="text;html=1;strokeColor=none;fillColor=none;align=left;verticalAlign=middle;whiteSpace=wrap;rounded=0;shadow=1;labelBackgroundColor=none;sketch=0;fillStyle=auto;strokeWidth=1;fontFamily=Verdana;fontSize=12;fontColor=#383838;" vertex="1" parent="1">
          <mxGeometry x="269.5" y="783" width="200" height="30" as="geometry" />
        </mxCell>
        <mxCell id="XYzLR4gQ-u4L-k7xtCeb-103" value="" style="group;fontFamily=Verdana;" vertex="1" connectable="0" parent="1">
          <mxGeometry x="509.5" y="393" width="185" height="30" as="geometry" />
        </mxCell>
        <mxCell id="XYzLR4gQ-u4L-k7xtCeb-104" value="" style="line;strokeWidth=2;html=1;shadow=1;labelBackgroundColor=none;sketch=0;fillStyle=auto;strokeColor=#FFFFFF;fontFamily=Verdana;fontSize=12;fontColor=#383838;fillColor=#CCCCCC;" vertex="1" parent="XYzLR4gQ-u4L-k7xtCeb-103">
          <mxGeometry y="20" width="185" height="10" as="geometry" />
        </mxCell>
        <mxCell id="XYzLR4gQ-u4L-k7xtCeb-105" value="" style="sketch=0;pointerEvents=1;shadow=0;dashed=0;html=1;strokeColor=none;fillColor=#CCCCCC;labelPosition=center;verticalLabelPosition=bottom;verticalAlign=top;outlineConnect=0;align=center;shape=mxgraph.office.concepts.writing_pencil;labelBackgroundColor=none;fillStyle=auto;strokeWidth=1;fontFamily=Verdana;fontSize=12;fontColor=none;noLabel=1;" vertex="1" parent="XYzLR4gQ-u4L-k7xtCeb-103">
          <mxGeometry x="166" y="5" width="19" height="20" as="geometry" />
        </mxCell>
        <mxCell id="XYzLR4gQ-u4L-k7xtCeb-106" value="" style="group;fontFamily=Verdana;" vertex="1" connectable="0" parent="1">
          <mxGeometry x="269.5" y="654" width="185" height="30" as="geometry" />
        </mxCell>
        <mxCell id="XYzLR4gQ-u4L-k7xtCeb-107" value="24/10/2014" style="text;html=1;strokeColor=none;fillColor=none;align=left;verticalAlign=middle;whiteSpace=wrap;rounded=0;shadow=1;labelBackgroundColor=none;sketch=0;fillStyle=auto;strokeWidth=1;fontFamily=Verdana;fontSize=12;fontColor=#383838;" vertex="1" parent="XYzLR4gQ-u4L-k7xtCeb-106">
          <mxGeometry x="1" width="110" height="30" as="geometry" />
        </mxCell>
        <mxCell id="XYzLR4gQ-u4L-k7xtCeb-108" value="" style="line;strokeWidth=2;html=1;shadow=1;labelBackgroundColor=none;sketch=0;fillStyle=auto;strokeColor=#FFFFFF;fontFamily=Verdana;fontSize=12;fontColor=#383838;fillColor=#CCCCCC;" vertex="1" parent="XYzLR4gQ-u4L-k7xtCeb-106">
          <mxGeometry y="19" width="185" height="10" as="geometry" />
        </mxCell>
        <mxCell id="XYzLR4gQ-u4L-k7xtCeb-109" value="" style="sketch=0;pointerEvents=1;shadow=0;dashed=0;html=1;strokeColor=none;fillColor=#CCCCCC;labelPosition=center;verticalLabelPosition=bottom;verticalAlign=top;outlineConnect=0;align=center;shape=mxgraph.office.concepts.writing_pencil;labelBackgroundColor=none;fillStyle=auto;strokeWidth=1;fontFamily=Verdana;fontSize=12;fontColor=none;noLabel=1;" vertex="1" parent="XYzLR4gQ-u4L-k7xtCeb-106">
          <mxGeometry x="166" y="5" width="19" height="20" as="geometry" />
        </mxCell>
        <mxCell id="XYzLR4gQ-u4L-k7xtCeb-111" value="Cancel Resource" style="text;html=1;points=[];align=left;verticalAlign=top;spacingTop=-4;fontSize=12;fontFamily=Verdana;movable=1;resizable=1;rotatable=1;deletable=1;editable=1;connectable=1;" vertex="1" parent="1">
          <mxGeometry x="530.5" y="763" width="170" height="20" as="geometry" />
        </mxCell>
        <mxCell id="7izQb-4qyIMrrWKtF8vS-1" value="" style="dashed=0;labelPosition=right;align=left;shape=mxgraph.gmdl.checkbox;strokeColor=#B0B0B0;fillColor=none;strokeWidth=2;aspect=fixed;sketch=0;fontFamily=Verdana;fontSize=14;" vertex="1" parent="1">
          <mxGeometry x="511.5" y="765" width="16" height="16" as="geometry" />
        </mxCell>
      </root>
    </mxGraphModel>
  </diagram>
  <diagram id="60Zsr4gOE-bPZqVUhqIc" name="PÃ¡gina-2">
    <mxGraphModel dx="1235" dy="636" grid="1" gridSize="10" guides="1" tooltips="1" connect="1" arrows="1" fold="1" page="1" pageScale="1" pageWidth="827" pageHeight="1169" math="0" shadow="0">
      <root>
        <mxCell id="0" />
        <mxCell id="1" parent="0" />
        <mxCell id="zkW5KlWCkSI7yvYU1E7A-1" value="" style="rounded=0;whiteSpace=wrap;html=1;strokeWidth=1;fontSize=17;fontColor=#FF0000;movable=1;resizable=1;rotatable=1;deletable=1;editable=1;connectable=1;" vertex="1" parent="1">
          <mxGeometry x="130" y="290" width="580" height="640" as="geometry" />
        </mxCell>
        <mxCell id="zkW5KlWCkSI7yvYU1E7A-2" value="Resource Name" style="text;html=1;points=[];align=left;verticalAlign=top;spacingTop=-4;fontSize=12;fontFamily=Verdana;movable=1;resizable=1;rotatable=1;deletable=1;editable=1;connectable=1;" vertex="1" parent="1">
          <mxGeometry x="175" y="420" width="170" height="20" as="geometry" />
        </mxCell>
        <mxCell id="zkW5KlWCkSI7yvYU1E7A-3" value="EnterpriseID" style="text;html=1;points=[];align=left;verticalAlign=top;spacingTop=-4;fontSize=12;fontFamily=Verdana;movable=1;resizable=1;rotatable=1;deletable=1;editable=1;connectable=1;" vertex="1" parent="1">
          <mxGeometry x="411" y="482" width="170" height="20" as="geometry" />
        </mxCell>
        <mxCell id="zkW5KlWCkSI7yvYU1E7A-4" value="Personnel Number" style="text;html=1;points=[];align=left;verticalAlign=top;spacingTop=-4;fontSize=12;fontFamily=Verdana;movable=1;resizable=1;rotatable=1;deletable=1;editable=1;connectable=1;" vertex="1" parent="1">
          <mxGeometry x="175" y="482" width="170" height="20" as="geometry" />
        </mxCell>
        <mxCell id="zkW5KlWCkSI7yvYU1E7A-5" value="Organization" style="text;html=1;points=[];align=left;verticalAlign=top;spacingTop=-4;fontSize=12;fontFamily=Verdana;movable=1;resizable=1;rotatable=1;deletable=1;editable=1;connectable=1;" vertex="1" parent="1">
          <mxGeometry x="171" y="548" width="170" height="20" as="geometry" />
        </mxCell>
        <mxCell id="zkW5KlWCkSI7yvYU1E7A-6" value="Location" style="text;html=1;points=[];align=left;verticalAlign=top;spacingTop=-4;fontSize=12;fontFamily=Verdana;movable=1;resizable=1;rotatable=1;deletable=1;editable=1;connectable=1;" vertex="1" parent="1">
          <mxGeometry x="411" y="548" width="170" height="20" as="geometry" />
        </mxCell>
        <mxCell id="zkW5KlWCkSI7yvYU1E7A-7" value="Type" style="text;html=1;points=[];align=left;verticalAlign=top;spacingTop=-4;fontSize=12;fontFamily=Verdana;movable=1;resizable=1;rotatable=1;deletable=1;editable=1;connectable=1;" vertex="1" parent="1">
          <mxGeometry x="411" y="421" width="170" height="20" as="geometry" />
        </mxCell>
        <mxCell id="zkW5KlWCkSI7yvYU1E7A-8" value="Profile" style="text;html=1;points=[];align=left;verticalAlign=top;spacingTop=-4;fontSize=12;fontFamily=Verdana;movable=1;resizable=1;rotatable=1;deletable=1;editable=1;connectable=1;" vertex="1" parent="1">
          <mxGeometry x="411" y="611" width="170" height="20" as="geometry" />
        </mxCell>
        <mxCell id="zkW5KlWCkSI7yvYU1E7A-9" value="&lt;font style=&quot;font-size: 12px;&quot;&gt;Career Level Name&amp;nbsp;&lt;/font&gt;" style="text;html=1;points=[];align=left;verticalAlign=top;spacingTop=-4;fontSize=12;fontFamily=Verdana;movable=1;resizable=1;rotatable=1;deletable=1;editable=1;connectable=1;" vertex="1" parent="1">
          <mxGeometry x="171" y="611" width="170" height="20" as="geometry" />
        </mxCell>
        <mxCell id="zkW5KlWCkSI7yvYU1E7A-10" value="&lt;font style=&quot;font-size: 12px;&quot;&gt;Actual Assignment Type&amp;nbsp;&lt;/font&gt;" style="text;html=1;points=[];align=left;verticalAlign=top;spacingTop=-4;fontSize=12;fontFamily=Verdana;movable=1;resizable=1;rotatable=1;deletable=1;editable=1;connectable=1;" vertex="1" parent="1">
          <mxGeometry x="411" y="676" width="300" height="20" as="geometry" />
        </mxCell>
        <mxCell id="zkW5KlWCkSI7yvYU1E7A-11" value="&lt;font style=&quot;font-size: 12px;&quot;&gt;Contract&lt;/font&gt;" style="text;html=1;points=[];align=left;verticalAlign=top;spacingTop=-4;fontSize=12;fontFamily=Verdana;movable=1;resizable=1;rotatable=1;deletable=1;editable=1;connectable=1;" vertex="1" parent="1">
          <mxGeometry x="171" y="676" width="200" height="20" as="geometry" />
        </mxCell>
        <mxCell id="zkW5KlWCkSI7yvYU1E7A-12" value="&lt;font style=&quot;font-size: 12px;&quot;&gt;Onboard date&lt;/font&gt;" style="text;html=1;points=[];align=left;verticalAlign=top;spacingTop=-4;fontSize=12;fontFamily=Verdana;movable=1;resizable=1;rotatable=1;deletable=1;editable=1;connectable=1;" vertex="1" parent="1">
          <mxGeometry x="171" y="741.5" width="300" height="20" as="geometry" />
        </mxCell>
        <mxCell id="zkW5KlWCkSI7yvYU1E7A-13" value="&lt;font style=&quot;font-size: 12px;&quot;&gt;&lt;font style=&quot;font-size: 12px;&quot;&gt;Rolloff&amp;nbsp;&lt;/font&gt;date&lt;/font&gt;" style="text;html=1;points=[];align=left;verticalAlign=top;spacingTop=-4;fontSize=12;fontFamily=Verdana;movable=1;resizable=1;rotatable=1;deletable=1;editable=1;connectable=1;" vertex="1" parent="1">
          <mxGeometry x="411" y="738" width="300" height="20" as="geometry" />
        </mxCell>
        <mxCell id="zkW5KlWCkSI7yvYU1E7A-14" value="" style="group;align=left;fontFamily=Verdana;" vertex="1" connectable="0" parent="1">
          <mxGeometry x="175" y="436" width="185" height="30" as="geometry" />
        </mxCell>
        <mxCell id="zkW5KlWCkSI7yvYU1E7A-15" value="MÃ¡rcia Couto" style="text;html=1;strokeColor=none;fillColor=none;align=left;verticalAlign=middle;whiteSpace=wrap;rounded=0;shadow=1;labelBackgroundColor=none;sketch=0;fillStyle=auto;strokeWidth=1;fontFamily=Verdana;fontSize=12;fontColor=#383838;" vertex="1" parent="zkW5KlWCkSI7yvYU1E7A-14">
          <mxGeometry x="1" width="110" height="30" as="geometry" />
        </mxCell>
        <mxCell id="zkW5KlWCkSI7yvYU1E7A-16" value="" style="line;strokeWidth=2;html=1;shadow=1;labelBackgroundColor=none;sketch=0;fillStyle=auto;strokeColor=#FFFFFF;fontFamily=Verdana;fontSize=12;fontColor=#383838;fillColor=#CCCCCC;" vertex="1" parent="zkW5KlWCkSI7yvYU1E7A-14">
          <mxGeometry y="19" width="185" height="10" as="geometry" />
        </mxCell>
        <mxCell id="zkW5KlWCkSI7yvYU1E7A-17" value="" style="sketch=0;pointerEvents=1;shadow=0;dashed=0;html=1;strokeColor=none;fillColor=#CCCCCC;labelPosition=center;verticalLabelPosition=bottom;verticalAlign=top;outlineConnect=0;align=center;shape=mxgraph.office.concepts.writing_pencil;labelBackgroundColor=none;fillStyle=auto;strokeWidth=1;fontFamily=Verdana;fontSize=12;fontColor=none;noLabel=1;" vertex="1" parent="zkW5KlWCkSI7yvYU1E7A-14">
          <mxGeometry x="166" y="5" width="19" height="20" as="geometry" />
        </mxCell>
        <mxCell id="zkW5KlWCkSI7yvYU1E7A-18" value="" style="group;fontFamily=Verdana;" vertex="1" connectable="0" parent="1">
          <mxGeometry x="175" y="497" width="185" height="30" as="geometry" />
        </mxCell>
        <mxCell id="zkW5KlWCkSI7yvYU1E7A-19" value="007" style="text;html=1;strokeColor=none;fillColor=none;align=left;verticalAlign=middle;whiteSpace=wrap;rounded=0;shadow=1;labelBackgroundColor=none;sketch=0;fillStyle=auto;strokeWidth=1;fontFamily=Verdana;fontSize=12;fontColor=#383838;" vertex="1" parent="zkW5KlWCkSI7yvYU1E7A-18">
          <mxGeometry x="1" width="110" height="30" as="geometry" />
        </mxCell>
        <mxCell id="zkW5KlWCkSI7yvYU1E7A-20" value="" style="line;strokeWidth=2;html=1;shadow=1;labelBackgroundColor=none;sketch=0;fillStyle=auto;strokeColor=#FFFFFF;fontFamily=Verdana;fontSize=12;fontColor=#383838;fillColor=#CCCCCC;" vertex="1" parent="zkW5KlWCkSI7yvYU1E7A-18">
          <mxGeometry y="19" width="185" height="10" as="geometry" />
        </mxCell>
        <mxCell id="zkW5KlWCkSI7yvYU1E7A-21" value="" style="sketch=0;pointerEvents=1;shadow=0;dashed=0;html=1;strokeColor=none;fillColor=#CCCCCC;labelPosition=center;verticalLabelPosition=bottom;verticalAlign=top;outlineConnect=0;align=center;shape=mxgraph.office.concepts.writing_pencil;labelBackgroundColor=none;fillStyle=auto;strokeWidth=1;fontFamily=Verdana;fontSize=12;fontColor=none;noLabel=1;" vertex="1" parent="zkW5KlWCkSI7yvYU1E7A-18">
          <mxGeometry x="166" y="5" width="19" height="20" as="geometry" />
        </mxCell>
        <mxCell id="zkW5KlWCkSI7yvYU1E7A-22" value="" style="group;fontFamily=Verdana;" vertex="1" connectable="0" parent="1">
          <mxGeometry x="171" y="564" width="185" height="30" as="geometry" />
        </mxCell>
        <mxCell id="zkW5KlWCkSI7yvYU1E7A-23" value="Accenture" style="text;html=1;strokeColor=none;fillColor=none;align=left;verticalAlign=middle;whiteSpace=wrap;rounded=0;shadow=1;labelBackgroundColor=none;sketch=0;fillStyle=auto;strokeWidth=1;fontFamily=Verdana;fontSize=12;fontColor=#383838;" vertex="1" parent="zkW5KlWCkSI7yvYU1E7A-22">
          <mxGeometry x="1" width="110" height="30" as="geometry" />
        </mxCell>
        <mxCell id="zkW5KlWCkSI7yvYU1E7A-24" value="" style="line;strokeWidth=2;html=1;shadow=1;labelBackgroundColor=none;sketch=0;fillStyle=auto;strokeColor=#FFFFFF;fontFamily=Verdana;fontSize=12;fontColor=#383838;fillColor=#CCCCCC;" vertex="1" parent="zkW5KlWCkSI7yvYU1E7A-22">
          <mxGeometry y="19" width="185" height="10" as="geometry" />
        </mxCell>
        <mxCell id="zkW5KlWCkSI7yvYU1E7A-25" value="" style="sketch=0;pointerEvents=1;shadow=0;dashed=0;html=1;strokeColor=none;fillColor=#CCCCCC;labelPosition=center;verticalLabelPosition=bottom;verticalAlign=top;outlineConnect=0;align=center;shape=mxgraph.office.concepts.writing_pencil;labelBackgroundColor=none;fillStyle=auto;strokeWidth=1;fontFamily=Verdana;fontSize=12;fontColor=none;noLabel=1;" vertex="1" parent="zkW5KlWCkSI7yvYU1E7A-22">
          <mxGeometry x="166" y="5" width="19" height="20" as="geometry" />
        </mxCell>
        <mxCell id="zkW5KlWCkSI7yvYU1E7A-26" value="" style="group;fontFamily=Verdana;" vertex="1" connectable="0" parent="1">
          <mxGeometry x="170" y="627" width="185" height="30" as="geometry" />
        </mxCell>
        <mxCell id="zkW5KlWCkSI7yvYU1E7A-27" value="Test" style="text;html=1;strokeColor=none;fillColor=none;align=left;verticalAlign=middle;whiteSpace=wrap;rounded=0;shadow=1;labelBackgroundColor=none;sketch=0;fillStyle=auto;strokeWidth=1;fontFamily=Verdana;fontSize=12;fontColor=#383838;" vertex="1" parent="zkW5KlWCkSI7yvYU1E7A-26">
          <mxGeometry x="1" width="110" height="30" as="geometry" />
        </mxCell>
        <mxCell id="zkW5KlWCkSI7yvYU1E7A-28" value="" style="line;strokeWidth=2;html=1;shadow=1;labelBackgroundColor=none;sketch=0;fillStyle=auto;strokeColor=#FFFFFF;fontFamily=Verdana;fontSize=12;fontColor=#383838;fillColor=#CCCCCC;" vertex="1" parent="zkW5KlWCkSI7yvYU1E7A-26">
          <mxGeometry y="19" width="185" height="10" as="geometry" />
        </mxCell>
        <mxCell id="zkW5KlWCkSI7yvYU1E7A-29" value="" style="sketch=0;pointerEvents=1;shadow=0;dashed=0;html=1;strokeColor=none;fillColor=#CCCCCC;labelPosition=center;verticalLabelPosition=bottom;verticalAlign=top;outlineConnect=0;align=center;shape=mxgraph.office.concepts.writing_pencil;labelBackgroundColor=none;fillStyle=auto;strokeWidth=1;fontFamily=Verdana;fontSize=12;fontColor=none;noLabel=1;" vertex="1" parent="zkW5KlWCkSI7yvYU1E7A-26">
          <mxGeometry x="166" y="5" width="19" height="20" as="geometry" />
        </mxCell>
        <mxCell id="zkW5KlWCkSI7yvYU1E7A-30" value="" style="group;fontFamily=Verdana;" vertex="1" connectable="0" parent="1">
          <mxGeometry x="411.5" y="564" width="185" height="30" as="geometry" />
        </mxCell>
        <mxCell id="zkW5KlWCkSI7yvYU1E7A-31" value="Braga" style="text;html=1;strokeColor=none;fillColor=none;align=left;verticalAlign=middle;whiteSpace=wrap;rounded=0;shadow=1;labelBackgroundColor=none;sketch=0;fillStyle=auto;strokeWidth=1;fontFamily=Verdana;fontSize=12;fontColor=#383838;" vertex="1" parent="zkW5KlWCkSI7yvYU1E7A-30">
          <mxGeometry x="1" width="110" height="30" as="geometry" />
        </mxCell>
        <mxCell id="zkW5KlWCkSI7yvYU1E7A-32" value="" style="line;strokeWidth=2;html=1;shadow=1;labelBackgroundColor=none;sketch=0;fillStyle=auto;strokeColor=#FFFFFF;fontFamily=Verdana;fontSize=12;fontColor=#383838;fillColor=#CCCCCC;" vertex="1" parent="zkW5KlWCkSI7yvYU1E7A-30">
          <mxGeometry y="19" width="185" height="10" as="geometry" />
        </mxCell>
        <mxCell id="zkW5KlWCkSI7yvYU1E7A-33" value="" style="sketch=0;pointerEvents=1;shadow=0;dashed=0;html=1;strokeColor=none;fillColor=#CCCCCC;labelPosition=center;verticalLabelPosition=bottom;verticalAlign=top;outlineConnect=0;align=center;shape=mxgraph.office.concepts.writing_pencil;labelBackgroundColor=none;fillStyle=auto;strokeWidth=1;fontFamily=Verdana;fontSize=12;fontColor=none;noLabel=1;" vertex="1" parent="zkW5KlWCkSI7yvYU1E7A-30">
          <mxGeometry x="166" y="5" width="19" height="20" as="geometry" />
        </mxCell>
        <mxCell id="zkW5KlWCkSI7yvYU1E7A-34" value="" style="group;fontFamily=Verdana;" vertex="1" connectable="0" parent="1">
          <mxGeometry x="411.5" y="627" width="185" height="30" as="geometry" />
        </mxCell>
        <mxCell id="zkW5KlWCkSI7yvYU1E7A-35" value="" style="line;strokeWidth=2;html=1;shadow=1;labelBackgroundColor=none;sketch=0;fillStyle=auto;strokeColor=#FFFFFF;fontFamily=Verdana;fontSize=12;fontColor=#383838;fillColor=#CCCCCC;" vertex="1" parent="zkW5KlWCkSI7yvYU1E7A-34">
          <mxGeometry y="19" width="185" height="10" as="geometry" />
        </mxCell>
        <mxCell id="zkW5KlWCkSI7yvYU1E7A-36" value="" style="sketch=0;pointerEvents=1;shadow=0;dashed=0;html=1;strokeColor=none;fillColor=#CCCCCC;labelPosition=center;verticalLabelPosition=bottom;verticalAlign=top;outlineConnect=0;align=center;shape=mxgraph.office.concepts.writing_pencil;labelBackgroundColor=none;fillStyle=auto;strokeWidth=1;fontFamily=Verdana;fontSize=12;fontColor=none;noLabel=1;" vertex="1" parent="zkW5KlWCkSI7yvYU1E7A-34">
          <mxGeometry x="166" y="5" width="19" height="20" as="geometry" />
        </mxCell>
        <mxCell id="zkW5KlWCkSI7yvYU1E7A-37" value="" style="group;fontFamily=Verdana;" vertex="1" connectable="0" parent="1">
          <mxGeometry x="411.5" y="696" width="185" height="30" as="geometry" />
        </mxCell>
        <mxCell id="zkW5KlWCkSI7yvYU1E7A-38" value="Mockup" style="text;html=1;strokeColor=none;fillColor=none;align=left;verticalAlign=middle;whiteSpace=wrap;rounded=0;shadow=1;labelBackgroundColor=none;sketch=0;fillStyle=auto;strokeWidth=1;fontFamily=Verdana;fontSize=12;fontColor=#383838;" vertex="1" parent="zkW5KlWCkSI7yvYU1E7A-37">
          <mxGeometry x="1" width="110" height="30" as="geometry" />
        </mxCell>
        <mxCell id="zkW5KlWCkSI7yvYU1E7A-39" value="" style="line;strokeWidth=2;html=1;shadow=1;labelBackgroundColor=none;sketch=0;fillStyle=auto;strokeColor=#FFFFFF;fontFamily=Verdana;fontSize=12;fontColor=#383838;fillColor=#CCCCCC;" vertex="1" parent="zkW5KlWCkSI7yvYU1E7A-37">
          <mxGeometry y="19" width="185" height="10" as="geometry" />
        </mxCell>
        <mxCell id="zkW5KlWCkSI7yvYU1E7A-40" value="" style="sketch=0;pointerEvents=1;shadow=0;dashed=0;html=1;strokeColor=none;fillColor=#CCCCCC;labelPosition=center;verticalLabelPosition=bottom;verticalAlign=top;outlineConnect=0;align=center;shape=mxgraph.office.concepts.writing_pencil;labelBackgroundColor=none;fillStyle=auto;strokeWidth=1;fontFamily=Verdana;fontSize=12;fontColor=none;noLabel=1;" vertex="1" parent="zkW5KlWCkSI7yvYU1E7A-37">
          <mxGeometry x="166" y="5" width="19" height="20" as="geometry" />
        </mxCell>
        <mxCell id="zkW5KlWCkSI7yvYU1E7A-41" value="" style="group;fontFamily=Verdana;" vertex="1" connectable="0" parent="1">
          <mxGeometry x="170" y="696" width="185" height="30" as="geometry" />
        </mxCell>
        <mxCell id="zkW5KlWCkSI7yvYU1E7A-42" value="" style="line;strokeWidth=2;html=1;shadow=1;labelBackgroundColor=none;sketch=0;fillStyle=auto;strokeColor=#FFFFFF;fontFamily=Verdana;fontSize=12;fontColor=#383838;fillColor=#CCCCCC;" vertex="1" parent="zkW5KlWCkSI7yvYU1E7A-41">
          <mxGeometry y="19" width="185" height="10" as="geometry" />
        </mxCell>
        <mxCell id="zkW5KlWCkSI7yvYU1E7A-43" value="" style="sketch=0;pointerEvents=1;shadow=0;dashed=0;html=1;strokeColor=none;fillColor=#CCCCCC;labelPosition=center;verticalLabelPosition=bottom;verticalAlign=top;outlineConnect=0;align=center;shape=mxgraph.office.concepts.writing_pencil;labelBackgroundColor=none;fillStyle=auto;strokeWidth=1;fontFamily=Verdana;fontSize=12;fontColor=none;noLabel=1;" vertex="1" parent="zkW5KlWCkSI7yvYU1E7A-41">
          <mxGeometry x="166" y="5" width="19" height="20" as="geometry" />
        </mxCell>
        <mxCell id="zkW5KlWCkSI7yvYU1E7A-44" value="" style="group;fontFamily=Verdana;" vertex="1" connectable="0" parent="1">
          <mxGeometry x="411.5" y="758" width="185" height="30" as="geometry" />
        </mxCell>
        <mxCell id="zkW5KlWCkSI7yvYU1E7A-45" value="&lt;span style=&quot;color: rgba(0, 0, 0, 0); font-size: 0px; text-align: start;&quot;&gt;%3CmxGraphModel%3E%3Croot%3E%3CmxCell%20id%3D%220%22%2F%3E%3CmxCell%20id%3D%221%22%20parent%3D%220%22%2F%3E%3CmxCell%20id%3D%222%22%20value%3D%22Actual%20Bill%20Code%26lt%3Bspan%20style%3D%26quot%3Bfont-size%3A%2014px%3B%26quot%3B%26gt%3B%26amp%3Bnbsp%3B%26lt%3B%2Fspan%26gt%3B%22%20style%3D%22text%3Bhtml%3D1%3Bpoints%3D%5B%5D%3Balign%3Dleft%3BverticalAlign%3Dtop%3BspacingTop%3D-4%3BfontSize%3D14%3BfontFamily%3DVerdana%3B%22%20vertex%3D%221%22%20parent%3D%221%22%3E%3CmxGeometry%20x%3D%22900%22%20y%3D%22869%22%20width%3D%22300%22%20height%3D%2220%22%20as%3D%22geometry%22%2F%3E%3C%2FmxCell%3E%3CmxCell%20id%3D%223%22%20value%3D%22%26lt%3Bfont%20style%3D%26quot%3Bfont-size%3A%2014px%3B%26quot%3B%26gt%3BActual%20%26lt%3Bfont%20style%3D%26quot%3Bfont-size%3A%2014px%3B%26quot%3B%26gt%3BCost%26lt%3B%2Ffont%26gt%3B%26lt%3B%2Ffont%26gt%3B%22%20style%3D%22text%3Bhtml%3D1%3Bpoints%3D%5B%5D%3Balign%3Dleft%3BverticalAlign%3Dtop%3BspacingTop%3D-4%3BfontSize%3D14%3BfontFamily%3DVerdana%3B%22%20vertex%3D%221%22%20parent%3D%221%22%3E%3CmxGeometry%20x%3D%22900%22%20y%3D%22948%22%20width%3D%22300%22%20height%3D%2220%22%20as%3D%22geometry%22%2F%3E%3C%2FmxCell%3E%3CmxCell%20id%3D%224%22%20value%3D%22Status%22%20style%3D%22text%3Bhtml%3D1%3Bpoints%3D%5B%5D%3Balign%3Dleft%3BverticalAlign%3Dtop%3BspacingTop%3D-4%3BfontSize%3D14%3BfontFamily%3DVerdana%3B%22%20vertex%3D%221%22%20parent%3D%221%22%3E%3CmxGeometry%20x%3D%22900%22%20y%3D%22780%22%20width%3D%22300%22%20height%3D%2220%22%20as%3D%22geometry%22%2F%3E%3C%2FmxCell%3E%3C%2Froot%3E%3C%2FmxGraphModel%3E&lt;/span&gt;" style="line;strokeWidth=2;html=1;shadow=1;labelBackgroundColor=none;sketch=0;fillStyle=auto;strokeColor=#FFFFFF;fontFamily=Verdana;fontSize=12;fontColor=#383838;fillColor=#CCCCCC;" vertex="1" parent="zkW5KlWCkSI7yvYU1E7A-44">
          <mxGeometry y="19" width="185" height="10" as="geometry" />
        </mxCell>
        <mxCell id="zkW5KlWCkSI7yvYU1E7A-46" value="" style="sketch=0;pointerEvents=1;shadow=0;dashed=0;html=1;strokeColor=none;fillColor=#CCCCCC;labelPosition=center;verticalLabelPosition=bottom;verticalAlign=top;outlineConnect=0;align=center;shape=mxgraph.office.concepts.writing_pencil;labelBackgroundColor=none;fillStyle=auto;strokeWidth=1;fontFamily=Verdana;fontSize=12;fontColor=none;noLabel=1;" vertex="1" parent="zkW5KlWCkSI7yvYU1E7A-44">
          <mxGeometry x="166" y="5" width="19" height="20" as="geometry" />
        </mxCell>
        <mxCell id="zkW5KlWCkSI7yvYU1E7A-47" value="Status" style="text;html=1;points=[];align=left;verticalAlign=top;spacingTop=-4;fontSize=12;fontFamily=Verdana;" vertex="1" parent="1">
          <mxGeometry x="170" y="805" width="300" height="20" as="geometry" />
        </mxCell>
        <mxCell id="zkW5KlWCkSI7yvYU1E7A-48" value="Actual Bill Code&lt;span style=&quot;font-size: 12px;&quot;&gt;&amp;nbsp;&lt;/span&gt;" style="text;html=1;points=[];align=left;verticalAlign=top;spacingTop=-4;fontSize=12;fontFamily=Verdana;" vertex="1" parent="1">
          <mxGeometry x="410" y="805" width="300" height="20" as="geometry" />
        </mxCell>
        <mxCell id="zkW5KlWCkSI7yvYU1E7A-49" value="&lt;span style=&quot;color: rgba(0, 0, 0, 0); font-size: 0px; text-align: start;&quot;&gt;%3CmxGraphModel%3E%3Croot%3E%3CmxCell%20id%3D%220%22%2F%3E%3CmxCell%20id%3D%221%22%20parent%3D%220%22%2F%3E%3CmxCell%20id%3D%222%22%20value%3D%22Actual%20Bill%20Code%26lt%3Bspan%20style%3D%26quot%3Bfont-size%3A%2014px%3B%26quot%3B%26gt%3B%26amp%3Bnbsp%3B%26lt%3B%2Fspan%26gt%3B%22%20style%3D%22text%3Bhtml%3D1%3Bpoints%3D%5B%5D%3Balign%3Dleft%3BverticalAlign%3Dtop%3BspacingTop%3D-4%3BfontSize%3D14%3BfontFamily%3DVerdana%3B%22%20vertex%3D%221%22%20parent%3D%221%22%3E%3CmxGeometry%20x%3D%22900%22%20y%3D%22869%22%20width%3D%22300%22%20height%3D%2220%22%20as%3D%22geometry%22%2F%3E%3C%2FmxCell%3E%3CmxCell%20id%3D%223%22%20value%3D%22%26lt%3Bfont%20style%3D%26quot%3Bfont-size%3A%2014px%3B%26quot%3B%26gt%3BActual%20%26lt%3Bfont%20style%3D%26quot%3Bfont-size%3A%2014px%3B%26quot%3B%26gt%3BCost%26lt%3B%2Ffont%26gt%3B%26lt%3B%2Ffont%26gt%3B%22%20style%3D%22text%3Bhtml%3D1%3Bpoints%3D%5B%5D%3Balign%3Dleft%3BverticalAlign%3Dtop%3BspacingTop%3D-4%3BfontSize%3D14%3BfontFamily%3DVerdana%3B%22%20vertex%3D%221%22%20parent%3D%221%22%3E%3CmxGeometry%20x%3D%22900%22%20y%3D%22948%22%20width%3D%22300%22%20height%3D%2220%22%20as%3D%22geometry%22%2F%3E%3C%2FmxCell%3E%3CmxCell%20id%3D%224%22%20value%3D%22Status%22%20style%3D%22text%3Bhtml%3D1%3Bpoints%3D%5B%5D%3Balign%3Dleft%3BverticalAlign%3Dtop%3BspacingTop%3D-4%3BfontSize%3D14%3BfontFamily%3DVerdana%3B%22%20vertex%3D%221%22%20parent%3D%221%22%3E%3CmxGeometry%20x%3D%22900%22%20y%3D%22780%22%20width%3D%22300%22%20height%3D%2220%22%20as%3D%22geometry%22%2F%3E%3C%2FmxCell%3E%3C%2Froot%3E%3C%2FmxGraphModel%3E&lt;/span&gt;" style="line;strokeWidth=2;html=1;shadow=1;labelBackgroundColor=none;sketch=0;fillStyle=auto;strokeColor=#FFFFFF;fontFamily=Verdana;fontSize=12;fontColor=#383838;fillColor=#CCCCCC;" vertex="1" parent="1">
          <mxGeometry x="411" y="845" width="185" height="10" as="geometry" />
        </mxCell>
        <mxCell id="zkW5KlWCkSI7yvYU1E7A-50" value="&lt;span style=&quot;color: rgba(0, 0, 0, 0); font-size: 0px; text-align: start;&quot;&gt;%3CmxGraphModel%3E%3Croot%3E%3CmxCell%20id%3D%220%22%2F%3E%3CmxCell%20id%3D%221%22%20parent%3D%220%22%2F%3E%3CmxCell%20id%3D%222%22%20value%3D%22Actual%20Bill%20Code%26lt%3Bspan%20style%3D%26quot%3Bfont-size%3A%2014px%3B%26quot%3B%26gt%3B%26amp%3Bnbsp%3B%26lt%3B%2Fspan%26gt%3B%22%20style%3D%22text%3Bhtml%3D1%3Bpoints%3D%5B%5D%3Balign%3Dleft%3BverticalAlign%3Dtop%3BspacingTop%3D-4%3BfontSize%3D14%3BfontFamily%3DVerdana%3B%22%20vertex%3D%221%22%20parent%3D%221%22%3E%3CmxGeometry%20x%3D%22900%22%20y%3D%22869%22%20width%3D%22300%22%20height%3D%2220%22%20as%3D%22geometry%22%2F%3E%3C%2FmxCell%3E%3CmxCell%20id%3D%223%22%20value%3D%22%26lt%3Bfont%20style%3D%26quot%3Bfont-size%3A%2014px%3B%26quot%3B%26gt%3BActual%20%26lt%3Bfont%20style%3D%26quot%3Bfont-size%3A%2014px%3B%26quot%3B%26gt%3BCost%26lt%3B%2Ffont%26gt%3B%26lt%3B%2Ffont%26gt%3B%22%20style%3D%22text%3Bhtml%3D1%3Bpoints%3D%5B%5D%3Balign%3Dleft%3BverticalAlign%3Dtop%3BspacingTop%3D-4%3BfontSize%3D14%3BfontFamily%3DVerdana%3B%22%20vertex%3D%221%22%20parent%3D%221%22%3E%3CmxGeometry%20x%3D%22900%22%20y%3D%22948%22%20width%3D%22300%22%20height%3D%2220%22%20as%3D%22geometry%22%2F%3E%3C%2FmxCell%3E%3CmxCell%20id%3D%224%22%20value%3D%22Status%22%20style%3D%22text%3Bhtml%3D1%3Bpoints%3D%5B%5D%3Balign%3Dleft%3BverticalAlign%3Dtop%3BspacingTop%3D-4%3BfontSize%3D14%3BfontFamily%3DVerdana%3B%22%20vertex%3D%221%22%20parent%3D%221%22%3E%3CmxGeometry%20x%3D%22900%22%20y%3D%22780%22%20width%3D%22300%22%20height%3D%2220%22%20as%3D%22geometry%22%2F%3E%3C%2FmxCell%3E%3C%2Froot%3E%3C%2FmxGraphModel%3E&lt;/span&gt;" style="line;strokeWidth=2;html=1;shadow=1;labelBackgroundColor=none;sketch=0;fillStyle=auto;strokeColor=#FFFFFF;fontFamily=Verdana;fontSize=12;fontColor=#383838;fillColor=#CCCCCC;" vertex="1" parent="1">
          <mxGeometry x="170" y="845" width="185" height="10" as="geometry" />
        </mxCell>
        <mxCell id="zkW5KlWCkSI7yvYU1E7A-51" value="Active" style="text;html=1;strokeColor=none;fillColor=none;align=left;verticalAlign=middle;whiteSpace=wrap;rounded=0;shadow=1;labelBackgroundColor=none;sketch=0;fillStyle=auto;strokeWidth=1;fontFamily=Verdana;fontSize=12;fontColor=#383838;" vertex="1" parent="1">
          <mxGeometry x="175" y="825" width="110" height="30" as="geometry" />
        </mxCell>
        <mxCell id="zkW5KlWCkSI7yvYU1E7A-52" value="&lt;span style=&quot;color: rgb(51, 51, 51);&quot;&gt;(Formula)&amp;nbsp;&lt;/span&gt;&lt;span style=&quot;border-color: var(--border-color); color: rgb(51, 51, 51);&quot;&gt;Calculated&lt;br style=&quot;border-color: var(--border-color);&quot;&gt;based on Career Level Resource&lt;/span&gt;" style="text;html=1;strokeColor=none;fillColor=none;align=left;verticalAlign=middle;whiteSpace=wrap;rounded=0;shadow=1;labelBackgroundColor=none;sketch=0;fillStyle=auto;strokeWidth=1;fontFamily=Verdana;fontSize=12;fontColor=#383838;" vertex="1" parent="1">
          <mxGeometry x="410" y="825" width="200" height="30" as="geometry" />
        </mxCell>
        <mxCell id="zkW5KlWCkSI7yvYU1E7A-53" value="" style="group" vertex="1" connectable="0" parent="1">
          <mxGeometry x="170" y="317" width="510" height="95" as="geometry" />
        </mxCell>
        <mxCell id="zkW5KlWCkSI7yvYU1E7A-54" value="Details" style="text;html=1;points=[];align=left;verticalAlign=top;spacingTop=-4;fontSize=14;fontFamily=Verdana;fillColor=#f5f5f5;fontColor=#333333;strokeColor=#666666;movable=1;resizable=1;rotatable=1;deletable=1;editable=1;connectable=1;" vertex="1" parent="zkW5KlWCkSI7yvYU1E7A-53">
          <mxGeometry y="75" width="510" height="20" as="geometry" />
        </mxCell>
        <mxCell id="zkW5KlWCkSI7yvYU1E7A-55" value="" style="rounded=0;whiteSpace=wrap;html=1;shadow=1;sketch=0;fillStyle=auto;strokeColor=#666666;strokeWidth=1;fontFamily=Verdana;fontSize=12;fontColor=#333333;fillColor=#f5f5f5;movable=1;resizable=1;rotatable=1;deletable=1;editable=1;connectable=1;" vertex="1" parent="zkW5KlWCkSI7yvYU1E7A-53">
          <mxGeometry width="510" height="60" as="geometry" />
        </mxCell>
        <mxCell id="zkW5KlWCkSI7yvYU1E7A-56" value="Resource&lt;br&gt;&lt;font style=&quot;font-size: 17px;&quot; color=&quot;#bfbfbf&quot;&gt;MÃ¡rcia Couto&lt;/font&gt;" style="text;html=1;points=[];align=left;verticalAlign=top;spacingTop=-4;fontSize=20;fontFamily=Verdana;strokeWidth=1;fontStyle=1;movable=1;resizable=1;rotatable=1;deletable=1;editable=1;connectable=1;" vertex="1" parent="zkW5KlWCkSI7yvYU1E7A-53">
          <mxGeometry x="1" y="1" width="210" height="60" as="geometry" />
        </mxCell>
        <mxCell id="zkW5KlWCkSI7yvYU1E7A-57" value="" style="group;fontFamily=Verdana;" vertex="1" connectable="0" parent="1">
          <mxGeometry x="411" y="437" width="185" height="30" as="geometry" />
        </mxCell>
        <mxCell id="zkW5KlWCkSI7yvYU1E7A-58" value="" style="line;strokeWidth=2;html=1;shadow=1;labelBackgroundColor=none;sketch=0;fillStyle=auto;strokeColor=#FFFFFF;fontFamily=Verdana;fontSize=12;fontColor=#383838;fillColor=#CCCCCC;" vertex="1" parent="zkW5KlWCkSI7yvYU1E7A-57">
          <mxGeometry y="19" width="185" height="10" as="geometry" />
        </mxCell>
        <mxCell id="zkW5KlWCkSI7yvYU1E7A-59" value="" style="sketch=0;pointerEvents=1;shadow=0;dashed=0;html=1;strokeColor=none;fillColor=#CCCCCC;labelPosition=center;verticalLabelPosition=bottom;verticalAlign=top;outlineConnect=0;align=center;shape=mxgraph.office.concepts.writing_pencil;labelBackgroundColor=none;fillStyle=auto;strokeWidth=1;fontFamily=Verdana;fontSize=12;fontColor=none;noLabel=1;" vertex="1" parent="zkW5KlWCkSI7yvYU1E7A-57">
          <mxGeometry x="166" y="5" width="19" height="20" as="geometry" />
        </mxCell>
        <mxCell id="zkW5KlWCkSI7yvYU1E7A-60" value="Inactive" style="text;html=1;strokeColor=none;fillColor=none;align=left;verticalAlign=middle;whiteSpace=wrap;rounded=0;shadow=1;labelBackgroundColor=none;sketch=0;fillStyle=auto;strokeWidth=1;fontFamily=Verdana;fontSize=12;fontColor=#383838;" vertex="1" parent="zkW5KlWCkSI7yvYU1E7A-57">
          <mxGeometry y="-1" width="110" height="30" as="geometry" />
        </mxCell>
        <mxCell id="zkW5KlWCkSI7yvYU1E7A-61" value="&lt;font style=&quot;font-size: 12px;&quot;&gt;Actual &lt;font style=&quot;font-size: 12px;&quot;&gt;Cost&lt;/font&gt;&lt;/font&gt;" style="text;html=1;points=[];align=left;verticalAlign=top;spacingTop=-4;fontSize=12;fontFamily=Verdana;" vertex="1" parent="1">
          <mxGeometry x="171" y="868" width="300" height="20" as="geometry" />
        </mxCell>
        <mxCell id="zkW5KlWCkSI7yvYU1E7A-62" value="&lt;span style=&quot;color: rgba(0, 0, 0, 0); font-size: 0px; text-align: start;&quot;&gt;%3CmxGraphModel%3E%3Croot%3E%3CmxCell%20id%3D%220%22%2F%3E%3CmxCell%20id%3D%221%22%20parent%3D%220%22%2F%3E%3CmxCell%20id%3D%222%22%20value%3D%22Actual%20Bill%20Code%26lt%3Bspan%20style%3D%26quot%3Bfont-size%3A%2014px%3B%26quot%3B%26gt%3B%26amp%3Bnbsp%3B%26lt%3B%2Fspan%26gt%3B%22%20style%3D%22text%3Bhtml%3D1%3Bpoints%3D%5B%5D%3Balign%3Dleft%3BverticalAlign%3Dtop%3BspacingTop%3D-4%3BfontSize%3D14%3BfontFamily%3DVerdana%3B%22%20vertex%3D%221%22%20parent%3D%221%22%3E%3CmxGeometry%20x%3D%22900%22%20y%3D%22869%22%20width%3D%22300%22%20height%3D%2220%22%20as%3D%22geometry%22%2F%3E%3C%2FmxCell%3E%3CmxCell%20id%3D%223%22%20value%3D%22%26lt%3Bfont%20style%3D%26quot%3Bfont-size%3A%2014px%3B%26quot%3B%26gt%3BActual%20%26lt%3Bfont%20style%3D%26quot%3Bfont-size%3A%2014px%3B%26quot%3B%26gt%3BCost%26lt%3B%2Ffont%26gt%3B%26lt%3B%2Ffont%26gt%3B%22%20style%3D%22text%3Bhtml%3D1%3Bpoints%3D%5B%5D%3Balign%3Dleft%3BverticalAlign%3Dtop%3BspacingTop%3D-4%3BfontSize%3D14%3BfontFamily%3DVerdana%3B%22%20vertex%3D%221%22%20parent%3D%221%22%3E%3CmxGeometry%20x%3D%22900%22%20y%3D%22948%22%20width%3D%22300%22%20height%3D%2220%22%20as%3D%22geometry%22%2F%3E%3C%2FmxCell%3E%3CmxCell%20id%3D%224%22%20value%3D%22Status%22%20style%3D%22text%3Bhtml%3D1%3Bpoints%3D%5B%5D%3Balign%3Dleft%3BverticalAlign%3Dtop%3BspacingTop%3D-4%3BfontSize%3D14%3BfontFamily%3DVerdana%3B%22%20vertex%3D%221%22%20parent%3D%221%22%3E%3CmxGeometry%20x%3D%22900%22%20y%3D%22780%22%20width%3D%22300%22%20height%3D%2220%22%20as%3D%22geometry%22%2F%3E%3C%2FmxCell%3E%3C%2Froot%3E%3C%2FmxGraphModel%3E&lt;/span&gt;" style="line;strokeWidth=2;html=1;shadow=1;labelBackgroundColor=none;sketch=0;fillStyle=auto;strokeColor=#FFFFFF;fontFamily=Verdana;fontSize=12;fontColor=#383838;fillColor=#CCCCCC;" vertex="1" parent="1">
          <mxGeometry x="171" y="908" width="185" height="10" as="geometry" />
        </mxCell>
        <mxCell id="zkW5KlWCkSI7yvYU1E7A-63" value="&lt;span style=&quot;color: rgb(51, 51, 51);&quot;&gt;(Formula)&amp;nbsp;&lt;/span&gt;&lt;span style=&quot;border-color: var(--border-color); color: rgb(51, 51, 51);&quot;&gt;Calculated&lt;br style=&quot;border-color: var(--border-color);&quot;&gt;based on Career Level Resource&lt;/span&gt;" style="text;html=1;strokeColor=none;fillColor=none;align=left;verticalAlign=middle;whiteSpace=wrap;rounded=0;shadow=1;labelBackgroundColor=none;sketch=0;fillStyle=auto;strokeWidth=1;fontFamily=Verdana;fontSize=12;fontColor=#383838;" vertex="1" parent="1">
          <mxGeometry x="170" y="888" width="200" height="30" as="geometry" />
        </mxCell>
        <mxCell id="zkW5KlWCkSI7yvYU1E7A-64" value="" style="group;fontFamily=Verdana;" vertex="1" connectable="0" parent="1">
          <mxGeometry x="410" y="498" width="185" height="30" as="geometry" />
        </mxCell>
        <mxCell id="zkW5KlWCkSI7yvYU1E7A-65" value="" style="line;strokeWidth=2;html=1;shadow=1;labelBackgroundColor=none;sketch=0;fillStyle=auto;strokeColor=#FFFFFF;fontFamily=Verdana;fontSize=12;fontColor=#383838;fillColor=#CCCCCC;" vertex="1" parent="zkW5KlWCkSI7yvYU1E7A-64">
          <mxGeometry y="20" width="185" height="10" as="geometry" />
        </mxCell>
        <mxCell id="zkW5KlWCkSI7yvYU1E7A-66" value="" style="sketch=0;pointerEvents=1;shadow=0;dashed=0;html=1;strokeColor=none;fillColor=#CCCCCC;labelPosition=center;verticalLabelPosition=bottom;verticalAlign=top;outlineConnect=0;align=center;shape=mxgraph.office.concepts.writing_pencil;labelBackgroundColor=none;fillStyle=auto;strokeWidth=1;fontFamily=Verdana;fontSize=12;fontColor=none;noLabel=1;" vertex="1" parent="zkW5KlWCkSI7yvYU1E7A-64">
          <mxGeometry x="166" y="5" width="19" height="20" as="geometry" />
        </mxCell>
        <mxCell id="zkW5KlWCkSI7yvYU1E7A-67" value="" style="group;fontFamily=Verdana;" vertex="1" connectable="0" parent="1">
          <mxGeometry x="170" y="759" width="185" height="30" as="geometry" />
        </mxCell>
        <mxCell id="zkW5KlWCkSI7yvYU1E7A-68" value="24/10/2014" style="text;html=1;strokeColor=none;fillColor=none;align=left;verticalAlign=middle;whiteSpace=wrap;rounded=0;shadow=1;labelBackgroundColor=none;sketch=0;fillStyle=auto;strokeWidth=1;fontFamily=Verdana;fontSize=12;fontColor=#383838;" vertex="1" parent="zkW5KlWCkSI7yvYU1E7A-67">
          <mxGeometry x="1" width="110" height="30" as="geometry" />
        </mxCell>
        <mxCell id="zkW5KlWCkSI7yvYU1E7A-69" value="" style="line;strokeWidth=2;html=1;shadow=1;labelBackgroundColor=none;sketch=0;fillStyle=auto;strokeColor=#FFFFFF;fontFamily=Verdana;fontSize=12;fontColor=#383838;fillColor=#CCCCCC;" vertex="1" parent="zkW5KlWCkSI7yvYU1E7A-67">
          <mxGeometry y="19" width="185" height="10" as="geometry" />
        </mxCell>
        <mxCell id="zkW5KlWCkSI7yvYU1E7A-70" value="" style="sketch=0;pointerEvents=1;shadow=0;dashed=0;html=1;strokeColor=none;fillColor=#CCCCCC;labelPosition=center;verticalLabelPosition=bottom;verticalAlign=top;outlineConnect=0;align=center;shape=mxgraph.office.concepts.writing_pencil;labelBackgroundColor=none;fillStyle=auto;strokeWidth=1;fontFamily=Verdana;fontSize=12;fontColor=none;noLabel=1;" vertex="1" parent="zkW5KlWCkSI7yvYU1E7A-67">
          <mxGeometry x="166" y="5" width="19" height="20" as="geometry" />
        </mxCell>
        <mxCell id="zkW5KlWCkSI7yvYU1E7A-71" value="Cancel Resource" style="text;html=1;points=[];align=left;verticalAlign=top;spacingTop=-4;fontSize=12;fontFamily=Verdana;movable=1;resizable=1;rotatable=1;deletable=1;editable=1;connectable=1;" vertex="1" parent="1">
          <mxGeometry x="430" y="868" width="170" height="20" as="geometry" />
        </mxCell>
        <mxCell id="zkW5KlWCkSI7yvYU1E7A-73" value="" style="dashed=0;labelPosition=right;align=left;shape=mxgraph.gmdl.checkbox;strokeColor=none;fillColor=#B0B0B0;strokeWidth=2;aspect=fixed;sketch=0;fontFamily=Verdana;fontSize=14;" vertex="1" parent="1">
          <mxGeometry x="412" y="870" width="16" height="16" as="geometry" />
        </mxCell>
        <mxCell id="3tG--z4yCjuvkfuSZ7hn-10" value="Canceled date:" style="text;html=1;points=[];align=left;verticalAlign=top;spacingTop=-4;fontSize=12;fontFamily=Verdana;movable=1;resizable=1;rotatable=1;deletable=1;editable=1;connectable=1;" vertex="1" parent="1">
          <mxGeometry x="430" y="898" width="300" height="20" as="geometry" />
        </mxCell>
        <mxCell id="3tG--z4yCjuvkfuSZ7hn-11" value="" style="group;fontFamily=Verdana;" vertex="1" connectable="0" parent="1">
          <mxGeometry x="500" y="893" width="185" height="30" as="geometry" />
        </mxCell>
        <mxCell id="3tG--z4yCjuvkfuSZ7hn-12" value="24/10/2014" style="text;html=1;strokeColor=none;fillColor=none;align=left;verticalAlign=middle;whiteSpace=wrap;rounded=0;shadow=1;labelBackgroundColor=none;sketch=0;fillStyle=auto;strokeWidth=1;fontFamily=Verdana;fontSize=12;fontColor=#383838;" vertex="1" parent="3tG--z4yCjuvkfuSZ7hn-11">
          <mxGeometry x="30" width="110" height="30" as="geometry" />
        </mxCell>
      </root>
    </mxGraphModel>
  </diagram>
  <diagram id="IDGsSqtmJSfETg8RbWSV" name="PÃ¡gina-3">
    <mxGraphModel dx="1050" dy="541" grid="1" gridSize="10" guides="1" tooltips="1" connect="1" arrows="1" fold="1" page="1" pageScale="1" pageWidth="827" pageHeight="1169" math="0" shadow="0">
      <root>
        <mxCell id="0" />
        <mxCell id="1" parent="0" />
        <mxCell id="BSCxWJDylK6rhqkB42kr-1" value="" style="rounded=0;whiteSpace=wrap;html=1;strokeWidth=1;fontSize=17;fontColor=#FF0000;movable=1;resizable=1;rotatable=1;deletable=1;editable=1;connectable=1;" vertex="1" parent="1">
          <mxGeometry x="229.5" y="185" width="580" height="640" as="geometry" />
        </mxCell>
        <mxCell id="BSCxWJDylK6rhqkB42kr-2" value="Resource Name" style="text;html=1;points=[];align=left;verticalAlign=top;spacingTop=-4;fontSize=12;fontFamily=Verdana;movable=1;resizable=1;rotatable=1;deletable=1;editable=1;connectable=1;" vertex="1" parent="1">
          <mxGeometry x="274.5" y="315" width="170" height="20" as="geometry" />
        </mxCell>
        <mxCell id="BSCxWJDylK6rhqkB42kr-3" value="EnterpriseID" style="text;html=1;points=[];align=left;verticalAlign=top;spacingTop=-4;fontSize=12;fontFamily=Verdana;movable=1;resizable=1;rotatable=1;deletable=1;editable=1;connectable=1;" vertex="1" parent="1">
          <mxGeometry x="510.5" y="377" width="170" height="20" as="geometry" />
        </mxCell>
        <mxCell id="BSCxWJDylK6rhqkB42kr-4" value="Personnel Number" style="text;html=1;points=[];align=left;verticalAlign=top;spacingTop=-4;fontSize=12;fontFamily=Verdana;movable=1;resizable=1;rotatable=1;deletable=1;editable=1;connectable=1;" vertex="1" parent="1">
          <mxGeometry x="274.5" y="377" width="170" height="20" as="geometry" />
        </mxCell>
        <mxCell id="BSCxWJDylK6rhqkB42kr-5" value="Organization" style="text;html=1;points=[];align=left;verticalAlign=top;spacingTop=-4;fontSize=12;fontFamily=Verdana;movable=1;resizable=1;rotatable=1;deletable=1;editable=1;connectable=1;" vertex="1" parent="1">
          <mxGeometry x="270.5" y="443" width="170" height="20" as="geometry" />
        </mxCell>
        <mxCell id="BSCxWJDylK6rhqkB42kr-6" value="Location" style="text;html=1;points=[];align=left;verticalAlign=top;spacingTop=-4;fontSize=12;fontFamily=Verdana;movable=1;resizable=1;rotatable=1;deletable=1;editable=1;connectable=1;" vertex="1" parent="1">
          <mxGeometry x="510.5" y="443" width="170" height="20" as="geometry" />
        </mxCell>
        <mxCell id="BSCxWJDylK6rhqkB42kr-7" value="Type" style="text;html=1;points=[];align=left;verticalAlign=top;spacingTop=-4;fontSize=12;fontFamily=Verdana;movable=1;resizable=1;rotatable=1;deletable=1;editable=1;connectable=1;" vertex="1" parent="1">
          <mxGeometry x="510.5" y="316" width="170" height="20" as="geometry" />
        </mxCell>
        <mxCell id="BSCxWJDylK6rhqkB42kr-8" value="Profile" style="text;html=1;points=[];align=left;verticalAlign=top;spacingTop=-4;fontSize=12;fontFamily=Verdana;movable=1;resizable=1;rotatable=1;deletable=1;editable=1;connectable=1;" vertex="1" parent="1">
          <mxGeometry x="510.5" y="506" width="170" height="20" as="geometry" />
        </mxCell>
        <mxCell id="BSCxWJDylK6rhqkB42kr-9" value="&lt;font style=&quot;font-size: 12px;&quot;&gt;Career Level Name&amp;nbsp;&lt;/font&gt;" style="text;html=1;points=[];align=left;verticalAlign=top;spacingTop=-4;fontSize=12;fontFamily=Verdana;movable=1;resizable=1;rotatable=1;deletable=1;editable=1;connectable=1;" vertex="1" parent="1">
          <mxGeometry x="270.5" y="506" width="170" height="20" as="geometry" />
        </mxCell>
        <mxCell id="BSCxWJDylK6rhqkB42kr-10" value="&lt;font style=&quot;font-size: 12px;&quot;&gt;Actual Assignment Type&amp;nbsp;&lt;/font&gt;" style="text;html=1;points=[];align=left;verticalAlign=top;spacingTop=-4;fontSize=12;fontFamily=Verdana;movable=1;resizable=1;rotatable=1;deletable=1;editable=1;connectable=1;" vertex="1" parent="1">
          <mxGeometry x="510.5" y="571" width="300" height="20" as="geometry" />
        </mxCell>
        <mxCell id="BSCxWJDylK6rhqkB42kr-11" value="&lt;font style=&quot;font-size: 12px;&quot;&gt;Contract&lt;/font&gt;" style="text;html=1;points=[];align=left;verticalAlign=top;spacingTop=-4;fontSize=12;fontFamily=Verdana;movable=1;resizable=1;rotatable=1;deletable=1;editable=1;connectable=1;" vertex="1" parent="1">
          <mxGeometry x="270.5" y="571" width="200" height="20" as="geometry" />
        </mxCell>
        <mxCell id="BSCxWJDylK6rhqkB42kr-12" value="&lt;font style=&quot;font-size: 12px;&quot;&gt;Onboard date&lt;/font&gt;" style="text;html=1;points=[];align=left;verticalAlign=top;spacingTop=-4;fontSize=12;fontFamily=Verdana;movable=1;resizable=1;rotatable=1;deletable=1;editable=1;connectable=1;" vertex="1" parent="1">
          <mxGeometry x="270.5" y="636.5" width="300" height="20" as="geometry" />
        </mxCell>
        <mxCell id="BSCxWJDylK6rhqkB42kr-13" value="&lt;font style=&quot;font-size: 12px;&quot;&gt;&lt;font style=&quot;font-size: 12px;&quot;&gt;Rolloff&amp;nbsp;&lt;/font&gt;date&lt;/font&gt;" style="text;html=1;points=[];align=left;verticalAlign=top;spacingTop=-4;fontSize=12;fontFamily=Verdana;movable=1;resizable=1;rotatable=1;deletable=1;editable=1;connectable=1;" vertex="1" parent="1">
          <mxGeometry x="510.5" y="633" width="300" height="20" as="geometry" />
        </mxCell>
        <mxCell id="BSCxWJDylK6rhqkB42kr-14" value="" style="group;align=left;fontFamily=Verdana;" vertex="1" connectable="0" parent="1">
          <mxGeometry x="274.5" y="331" width="185" height="30" as="geometry" />
        </mxCell>
        <mxCell id="BSCxWJDylK6rhqkB42kr-15" value="MÃ¡rcia Couto" style="text;html=1;strokeColor=none;fillColor=none;align=left;verticalAlign=middle;whiteSpace=wrap;rounded=0;shadow=1;labelBackgroundColor=none;sketch=0;fillStyle=auto;strokeWidth=1;fontFamily=Verdana;fontSize=12;fontColor=#383838;" vertex="1" parent="BSCxWJDylK6rhqkB42kr-14">
          <mxGeometry x="1" width="110" height="30" as="geometry" />
        </mxCell>
        <mxCell id="BSCxWJDylK6rhqkB42kr-16" value="" style="line;strokeWidth=2;html=1;shadow=1;labelBackgroundColor=none;sketch=0;fillStyle=auto;strokeColor=#FFFFFF;fontFamily=Verdana;fontSize=12;fontColor=#383838;fillColor=#CCCCCC;" vertex="1" parent="BSCxWJDylK6rhqkB42kr-14">
          <mxGeometry y="19" width="185" height="10" as="geometry" />
        </mxCell>
        <mxCell id="BSCxWJDylK6rhqkB42kr-17" value="" style="sketch=0;pointerEvents=1;shadow=0;dashed=0;html=1;strokeColor=none;fillColor=#CCCCCC;labelPosition=center;verticalLabelPosition=bottom;verticalAlign=top;outlineConnect=0;align=center;shape=mxgraph.office.concepts.writing_pencil;labelBackgroundColor=none;fillStyle=auto;strokeWidth=1;fontFamily=Verdana;fontSize=12;fontColor=none;noLabel=1;" vertex="1" parent="BSCxWJDylK6rhqkB42kr-14">
          <mxGeometry x="166" y="5" width="19" height="20" as="geometry" />
        </mxCell>
        <mxCell id="BSCxWJDylK6rhqkB42kr-18" value="" style="group;fontFamily=Verdana;" vertex="1" connectable="0" parent="1">
          <mxGeometry x="274.5" y="392" width="185" height="30" as="geometry" />
        </mxCell>
        <mxCell id="BSCxWJDylK6rhqkB42kr-19" value="007" style="text;html=1;strokeColor=none;fillColor=none;align=left;verticalAlign=middle;whiteSpace=wrap;rounded=0;shadow=1;labelBackgroundColor=none;sketch=0;fillStyle=auto;strokeWidth=1;fontFamily=Verdana;fontSize=12;fontColor=#383838;" vertex="1" parent="BSCxWJDylK6rhqkB42kr-18">
          <mxGeometry x="1" width="110" height="30" as="geometry" />
        </mxCell>
        <mxCell id="BSCxWJDylK6rhqkB42kr-20" value="" style="line;strokeWidth=2;html=1;shadow=1;labelBackgroundColor=none;sketch=0;fillStyle=auto;strokeColor=#FFFFFF;fontFamily=Verdana;fontSize=12;fontColor=#383838;fillColor=#CCCCCC;" vertex="1" parent="BSCxWJDylK6rhqkB42kr-18">
          <mxGeometry y="19" width="185" height="10" as="geometry" />
        </mxCell>
        <mxCell id="BSCxWJDylK6rhqkB42kr-21" value="" style="sketch=0;pointerEvents=1;shadow=0;dashed=0;html=1;strokeColor=none;fillColor=#CCCCCC;labelPosition=center;verticalLabelPosition=bottom;verticalAlign=top;outlineConnect=0;align=center;shape=mxgraph.office.concepts.writing_pencil;labelBackgroundColor=none;fillStyle=auto;strokeWidth=1;fontFamily=Verdana;fontSize=12;fontColor=none;noLabel=1;" vertex="1" parent="BSCxWJDylK6rhqkB42kr-18">
          <mxGeometry x="166" y="5" width="19" height="20" as="geometry" />
        </mxCell>
        <mxCell id="BSCxWJDylK6rhqkB42kr-22" value="" style="group;fontFamily=Verdana;" vertex="1" connectable="0" parent="1">
          <mxGeometry x="270.5" y="459" width="185" height="30" as="geometry" />
        </mxCell>
        <mxCell id="BSCxWJDylK6rhqkB42kr-23" value="Accenture" style="text;html=1;strokeColor=none;fillColor=none;align=left;verticalAlign=middle;whiteSpace=wrap;rounded=0;shadow=1;labelBackgroundColor=none;sketch=0;fillStyle=auto;strokeWidth=1;fontFamily=Verdana;fontSize=12;fontColor=#383838;" vertex="1" parent="BSCxWJDylK6rhqkB42kr-22">
          <mxGeometry x="1" width="110" height="30" as="geometry" />
        </mxCell>
        <mxCell id="BSCxWJDylK6rhqkB42kr-24" value="" style="line;strokeWidth=2;html=1;shadow=1;labelBackgroundColor=none;sketch=0;fillStyle=auto;strokeColor=#FFFFFF;fontFamily=Verdana;fontSize=12;fontColor=#383838;fillColor=#CCCCCC;" vertex="1" parent="BSCxWJDylK6rhqkB42kr-22">
          <mxGeometry y="19" width="185" height="10" as="geometry" />
        </mxCell>
        <mxCell id="BSCxWJDylK6rhqkB42kr-25" value="" style="sketch=0;pointerEvents=1;shadow=0;dashed=0;html=1;strokeColor=none;fillColor=#CCCCCC;labelPosition=center;verticalLabelPosition=bottom;verticalAlign=top;outlineConnect=0;align=center;shape=mxgraph.office.concepts.writing_pencil;labelBackgroundColor=none;fillStyle=auto;strokeWidth=1;fontFamily=Verdana;fontSize=12;fontColor=none;noLabel=1;" vertex="1" parent="BSCxWJDylK6rhqkB42kr-22">
          <mxGeometry x="166" y="5" width="19" height="20" as="geometry" />
        </mxCell>
        <mxCell id="BSCxWJDylK6rhqkB42kr-26" value="" style="group;fontFamily=Verdana;" vertex="1" connectable="0" parent="1">
          <mxGeometry x="269.5" y="522" width="185" height="30" as="geometry" />
        </mxCell>
        <mxCell id="BSCxWJDylK6rhqkB42kr-27" value="Test" style="text;html=1;strokeColor=none;fillColor=none;align=left;verticalAlign=middle;whiteSpace=wrap;rounded=0;shadow=1;labelBackgroundColor=none;sketch=0;fillStyle=auto;strokeWidth=1;fontFamily=Verdana;fontSize=12;fontColor=#383838;" vertex="1" parent="BSCxWJDylK6rhqkB42kr-26">
          <mxGeometry x="1" width="110" height="30" as="geometry" />
        </mxCell>
        <mxCell id="BSCxWJDylK6rhqkB42kr-28" value="" style="line;strokeWidth=2;html=1;shadow=1;labelBackgroundColor=none;sketch=0;fillStyle=auto;strokeColor=#FFFFFF;fontFamily=Verdana;fontSize=12;fontColor=#383838;fillColor=#CCCCCC;" vertex="1" parent="BSCxWJDylK6rhqkB42kr-26">
          <mxGeometry y="19" width="185" height="10" as="geometry" />
        </mxCell>
        <mxCell id="BSCxWJDylK6rhqkB42kr-29" value="" style="sketch=0;pointerEvents=1;shadow=0;dashed=0;html=1;strokeColor=none;fillColor=#CCCCCC;labelPosition=center;verticalLabelPosition=bottom;verticalAlign=top;outlineConnect=0;align=center;shape=mxgraph.office.concepts.writing_pencil;labelBackgroundColor=none;fillStyle=auto;strokeWidth=1;fontFamily=Verdana;fontSize=12;fontColor=none;noLabel=1;" vertex="1" parent="BSCxWJDylK6rhqkB42kr-26">
          <mxGeometry x="166" y="5" width="19" height="20" as="geometry" />
        </mxCell>
        <mxCell id="BSCxWJDylK6rhqkB42kr-30" value="" style="group;fontFamily=Verdana;" vertex="1" connectable="0" parent="1">
          <mxGeometry x="511" y="459" width="185" height="30" as="geometry" />
        </mxCell>
        <mxCell id="BSCxWJDylK6rhqkB42kr-31" value="Braga" style="text;html=1;strokeColor=none;fillColor=none;align=left;verticalAlign=middle;whiteSpace=wrap;rounded=0;shadow=1;labelBackgroundColor=none;sketch=0;fillStyle=auto;strokeWidth=1;fontFamily=Verdana;fontSize=12;fontColor=#383838;" vertex="1" parent="BSCxWJDylK6rhqkB42kr-30">
          <mxGeometry x="1" width="110" height="30" as="geometry" />
        </mxCell>
        <mxCell id="BSCxWJDylK6rhqkB42kr-32" value="" style="line;strokeWidth=2;html=1;shadow=1;labelBackgroundColor=none;sketch=0;fillStyle=auto;strokeColor=#FFFFFF;fontFamily=Verdana;fontSize=12;fontColor=#383838;fillColor=#CCCCCC;" vertex="1" parent="BSCxWJDylK6rhqkB42kr-30">
          <mxGeometry y="19" width="185" height="10" as="geometry" />
        </mxCell>
        <mxCell id="BSCxWJDylK6rhqkB42kr-33" value="" style="sketch=0;pointerEvents=1;shadow=0;dashed=0;html=1;strokeColor=none;fillColor=#CCCCCC;labelPosition=center;verticalLabelPosition=bottom;verticalAlign=top;outlineConnect=0;align=center;shape=mxgraph.office.concepts.writing_pencil;labelBackgroundColor=none;fillStyle=auto;strokeWidth=1;fontFamily=Verdana;fontSize=12;fontColor=none;noLabel=1;" vertex="1" parent="BSCxWJDylK6rhqkB42kr-30">
          <mxGeometry x="166" y="5" width="19" height="20" as="geometry" />
        </mxCell>
        <mxCell id="BSCxWJDylK6rhqkB42kr-34" value="" style="group;fontFamily=Verdana;" vertex="1" connectable="0" parent="1">
          <mxGeometry x="511" y="522" width="185" height="30" as="geometry" />
        </mxCell>
        <mxCell id="BSCxWJDylK6rhqkB42kr-35" value="" style="line;strokeWidth=2;html=1;shadow=1;labelBackgroundColor=none;sketch=0;fillStyle=auto;strokeColor=#FFFFFF;fontFamily=Verdana;fontSize=12;fontColor=#383838;fillColor=#CCCCCC;" vertex="1" parent="BSCxWJDylK6rhqkB42kr-34">
          <mxGeometry y="19" width="185" height="10" as="geometry" />
        </mxCell>
        <mxCell id="BSCxWJDylK6rhqkB42kr-36" value="" style="sketch=0;pointerEvents=1;shadow=0;dashed=0;html=1;strokeColor=none;fillColor=#CCCCCC;labelPosition=center;verticalLabelPosition=bottom;verticalAlign=top;outlineConnect=0;align=center;shape=mxgraph.office.concepts.writing_pencil;labelBackgroundColor=none;fillStyle=auto;strokeWidth=1;fontFamily=Verdana;fontSize=12;fontColor=none;noLabel=1;" vertex="1" parent="BSCxWJDylK6rhqkB42kr-34">
          <mxGeometry x="166" y="5" width="19" height="20" as="geometry" />
        </mxCell>
        <mxCell id="BSCxWJDylK6rhqkB42kr-37" value="" style="group;fontFamily=Verdana;" vertex="1" connectable="0" parent="1">
          <mxGeometry x="511" y="591" width="185" height="30" as="geometry" />
        </mxCell>
        <mxCell id="BSCxWJDylK6rhqkB42kr-38" value="Mockup" style="text;html=1;strokeColor=none;fillColor=none;align=left;verticalAlign=middle;whiteSpace=wrap;rounded=0;shadow=1;labelBackgroundColor=none;sketch=0;fillStyle=auto;strokeWidth=1;fontFamily=Verdana;fontSize=12;fontColor=#383838;" vertex="1" parent="BSCxWJDylK6rhqkB42kr-37">
          <mxGeometry x="1" width="110" height="30" as="geometry" />
        </mxCell>
        <mxCell id="BSCxWJDylK6rhqkB42kr-39" value="" style="line;strokeWidth=2;html=1;shadow=1;labelBackgroundColor=none;sketch=0;fillStyle=auto;strokeColor=#FFFFFF;fontFamily=Verdana;fontSize=12;fontColor=#383838;fillColor=#CCCCCC;" vertex="1" parent="BSCxWJDylK6rhqkB42kr-37">
          <mxGeometry y="19" width="185" height="10" as="geometry" />
        </mxCell>
        <mxCell id="BSCxWJDylK6rhqkB42kr-40" value="" style="sketch=0;pointerEvents=1;shadow=0;dashed=0;html=1;strokeColor=none;fillColor=#CCCCCC;labelPosition=center;verticalLabelPosition=bottom;verticalAlign=top;outlineConnect=0;align=center;shape=mxgraph.office.concepts.writing_pencil;labelBackgroundColor=none;fillStyle=auto;strokeWidth=1;fontFamily=Verdana;fontSize=12;fontColor=none;noLabel=1;" vertex="1" parent="BSCxWJDylK6rhqkB42kr-37">
          <mxGeometry x="166" y="5" width="19" height="20" as="geometry" />
        </mxCell>
        <mxCell id="BSCxWJDylK6rhqkB42kr-41" value="" style="group;fontFamily=Verdana;" vertex="1" connectable="0" parent="1">
          <mxGeometry x="269.5" y="591" width="185" height="30" as="geometry" />
        </mxCell>
        <mxCell id="BSCxWJDylK6rhqkB42kr-42" value="" style="line;strokeWidth=2;html=1;shadow=1;labelBackgroundColor=none;sketch=0;fillStyle=auto;strokeColor=#FFFFFF;fontFamily=Verdana;fontSize=12;fontColor=#383838;fillColor=#CCCCCC;" vertex="1" parent="BSCxWJDylK6rhqkB42kr-41">
          <mxGeometry y="19" width="185" height="10" as="geometry" />
        </mxCell>
        <mxCell id="BSCxWJDylK6rhqkB42kr-43" value="" style="sketch=0;pointerEvents=1;shadow=0;dashed=0;html=1;strokeColor=none;fillColor=#CCCCCC;labelPosition=center;verticalLabelPosition=bottom;verticalAlign=top;outlineConnect=0;align=center;shape=mxgraph.office.concepts.writing_pencil;labelBackgroundColor=none;fillStyle=auto;strokeWidth=1;fontFamily=Verdana;fontSize=12;fontColor=none;noLabel=1;" vertex="1" parent="BSCxWJDylK6rhqkB42kr-41">
          <mxGeometry x="166" y="5" width="19" height="20" as="geometry" />
        </mxCell>
        <mxCell id="BSCxWJDylK6rhqkB42kr-44" value="" style="group;fontFamily=Verdana;" vertex="1" connectable="0" parent="1">
          <mxGeometry x="511" y="653" width="185" height="30" as="geometry" />
        </mxCell>
        <mxCell id="BSCxWJDylK6rhqkB42kr-45" value="&lt;span style=&quot;color: rgba(0, 0, 0, 0); font-size: 0px; text-align: start;&quot;&gt;%3CmxGraphModel%3E%3Croot%3E%3CmxCell%20id%3D%220%22%2F%3E%3CmxCell%20id%3D%221%22%20parent%3D%220%22%2F%3E%3CmxCell%20id%3D%222%22%20value%3D%22Actual%20Bill%20Code%26lt%3Bspan%20style%3D%26quot%3Bfont-size%3A%2014px%3B%26quot%3B%26gt%3B%26amp%3Bnbsp%3B%26lt%3B%2Fspan%26gt%3B%22%20style%3D%22text%3Bhtml%3D1%3Bpoints%3D%5B%5D%3Balign%3Dleft%3BverticalAlign%3Dtop%3BspacingTop%3D-4%3BfontSize%3D14%3BfontFamily%3DVerdana%3B%22%20vertex%3D%221%22%20parent%3D%221%22%3E%3CmxGeometry%20x%3D%22900%22%20y%3D%22869%22%20width%3D%22300%22%20height%3D%2220%22%20as%3D%22geometry%22%2F%3E%3C%2FmxCell%3E%3CmxCell%20id%3D%223%22%20value%3D%22%26lt%3Bfont%20style%3D%26quot%3Bfont-size%3A%2014px%3B%26quot%3B%26gt%3BActual%20%26lt%3Bfont%20style%3D%26quot%3Bfont-size%3A%2014px%3B%26quot%3B%26gt%3BCost%26lt%3B%2Ffont%26gt%3B%26lt%3B%2Ffont%26gt%3B%22%20style%3D%22text%3Bhtml%3D1%3Bpoints%3D%5B%5D%3Balign%3Dleft%3BverticalAlign%3Dtop%3BspacingTop%3D-4%3BfontSize%3D14%3BfontFamily%3DVerdana%3B%22%20vertex%3D%221%22%20parent%3D%221%22%3E%3CmxGeometry%20x%3D%22900%22%20y%3D%22948%22%20width%3D%22300%22%20height%3D%2220%22%20as%3D%22geometry%22%2F%3E%3C%2FmxCell%3E%3CmxCell%20id%3D%224%22%20value%3D%22Status%22%20style%3D%22text%3Bhtml%3D1%3Bpoints%3D%5B%5D%3Balign%3Dleft%3BverticalAlign%3Dtop%3BspacingTop%3D-4%3BfontSize%3D14%3BfontFamily%3DVerdana%3B%22%20vertex%3D%221%22%20parent%3D%221%22%3E%3CmxGeometry%20x%3D%22900%22%20y%3D%22780%22%20width%3D%22300%22%20height%3D%2220%22%20as%3D%22geometry%22%2F%3E%3C%2FmxCell%3E%3C%2Froot%3E%3C%2FmxGraphModel%3E&lt;/span&gt;" style="line;strokeWidth=2;html=1;shadow=1;labelBackgroundColor=none;sketch=0;fillStyle=auto;strokeColor=#FFFFFF;fontFamily=Verdana;fontSize=12;fontColor=#383838;fillColor=#CCCCCC;" vertex="1" parent="BSCxWJDylK6rhqkB42kr-44">
          <mxGeometry y="19" width="185" height="10" as="geometry" />
        </mxCell>
        <mxCell id="BSCxWJDylK6rhqkB42kr-46" value="" style="sketch=0;pointerEvents=1;shadow=0;dashed=0;html=1;strokeColor=none;fillColor=#CCCCCC;labelPosition=center;verticalLabelPosition=bottom;verticalAlign=top;outlineConnect=0;align=center;shape=mxgraph.office.concepts.writing_pencil;labelBackgroundColor=none;fillStyle=auto;strokeWidth=1;fontFamily=Verdana;fontSize=12;fontColor=none;noLabel=1;" vertex="1" parent="BSCxWJDylK6rhqkB42kr-44">
          <mxGeometry x="166" y="5" width="19" height="20" as="geometry" />
        </mxCell>
        <mxCell id="BSCxWJDylK6rhqkB42kr-47" value="Status" style="text;html=1;points=[];align=left;verticalAlign=top;spacingTop=-4;fontSize=12;fontFamily=Verdana;" vertex="1" parent="1">
          <mxGeometry x="269.5" y="700" width="300" height="20" as="geometry" />
        </mxCell>
        <mxCell id="BSCxWJDylK6rhqkB42kr-48" value="Actual Bill Code&lt;span style=&quot;font-size: 12px;&quot;&gt;&amp;nbsp;&lt;/span&gt;" style="text;html=1;points=[];align=left;verticalAlign=top;spacingTop=-4;fontSize=12;fontFamily=Verdana;" vertex="1" parent="1">
          <mxGeometry x="509.5" y="700" width="300" height="20" as="geometry" />
        </mxCell>
        <mxCell id="BSCxWJDylK6rhqkB42kr-49" value="&lt;span style=&quot;color: rgba(0, 0, 0, 0); font-size: 0px; text-align: start;&quot;&gt;%3CmxGraphModel%3E%3Croot%3E%3CmxCell%20id%3D%220%22%2F%3E%3CmxCell%20id%3D%221%22%20parent%3D%220%22%2F%3E%3CmxCell%20id%3D%222%22%20value%3D%22Actual%20Bill%20Code%26lt%3Bspan%20style%3D%26quot%3Bfont-size%3A%2014px%3B%26quot%3B%26gt%3B%26amp%3Bnbsp%3B%26lt%3B%2Fspan%26gt%3B%22%20style%3D%22text%3Bhtml%3D1%3Bpoints%3D%5B%5D%3Balign%3Dleft%3BverticalAlign%3Dtop%3BspacingTop%3D-4%3BfontSize%3D14%3BfontFamily%3DVerdana%3B%22%20vertex%3D%221%22%20parent%3D%221%22%3E%3CmxGeometry%20x%3D%22900%22%20y%3D%22869%22%20width%3D%22300%22%20height%3D%2220%22%20as%3D%22geometry%22%2F%3E%3C%2FmxCell%3E%3CmxCell%20id%3D%223%22%20value%3D%22%26lt%3Bfont%20style%3D%26quot%3Bfont-size%3A%2014px%3B%26quot%3B%26gt%3BActual%20%26lt%3Bfont%20style%3D%26quot%3Bfont-size%3A%2014px%3B%26quot%3B%26gt%3BCost%26lt%3B%2Ffont%26gt%3B%26lt%3B%2Ffont%26gt%3B%22%20style%3D%22text%3Bhtml%3D1%3Bpoints%3D%5B%5D%3Balign%3Dleft%3BverticalAlign%3Dtop%3BspacingTop%3D-4%3BfontSize%3D14%3BfontFamily%3DVerdana%3B%22%20vertex%3D%221%22%20parent%3D%221%22%3E%3CmxGeometry%20x%3D%22900%22%20y%3D%22948%22%20width%3D%22300%22%20height%3D%2220%22%20as%3D%22geometry%22%2F%3E%3C%2FmxCell%3E%3CmxCell%20id%3D%224%22%20value%3D%22Status%22%20style%3D%22text%3Bhtml%3D1%3Bpoints%3D%5B%5D%3Balign%3Dleft%3BverticalAlign%3Dtop%3BspacingTop%3D-4%3BfontSize%3D14%3BfontFamily%3DVerdana%3B%22%20vertex%3D%221%22%20parent%3D%221%22%3E%3CmxGeometry%20x%3D%22900%22%20y%3D%22780%22%20width%3D%22300%22%20height%3D%2220%22%20as%3D%22geometry%22%2F%3E%3C%2FmxCell%3E%3C%2Froot%3E%3C%2FmxGraphModel%3E&lt;/span&gt;" style="line;strokeWidth=2;html=1;shadow=1;labelBackgroundColor=none;sketch=0;fillStyle=auto;strokeColor=#FFFFFF;fontFamily=Verdana;fontSize=12;fontColor=#383838;fillColor=#CCCCCC;" vertex="1" parent="1">
          <mxGeometry x="510.5" y="740" width="185" height="10" as="geometry" />
        </mxCell>
        <mxCell id="BSCxWJDylK6rhqkB42kr-50" value="&lt;span style=&quot;color: rgba(0, 0, 0, 0); font-size: 0px; text-align: start;&quot;&gt;%3CmxGraphModel%3E%3Croot%3E%3CmxCell%20id%3D%220%22%2F%3E%3CmxCell%20id%3D%221%22%20parent%3D%220%22%2F%3E%3CmxCell%20id%3D%222%22%20value%3D%22Actual%20Bill%20Code%26lt%3Bspan%20style%3D%26quot%3Bfont-size%3A%2014px%3B%26quot%3B%26gt%3B%26amp%3Bnbsp%3B%26lt%3B%2Fspan%26gt%3B%22%20style%3D%22text%3Bhtml%3D1%3Bpoints%3D%5B%5D%3Balign%3Dleft%3BverticalAlign%3Dtop%3BspacingTop%3D-4%3BfontSize%3D14%3BfontFamily%3DVerdana%3B%22%20vertex%3D%221%22%20parent%3D%221%22%3E%3CmxGeometry%20x%3D%22900%22%20y%3D%22869%22%20width%3D%22300%22%20height%3D%2220%22%20as%3D%22geometry%22%2F%3E%3C%2FmxCell%3E%3CmxCell%20id%3D%223%22%20value%3D%22%26lt%3Bfont%20style%3D%26quot%3Bfont-size%3A%2014px%3B%26quot%3B%26gt%3BActual%20%26lt%3Bfont%20style%3D%26quot%3Bfont-size%3A%2014px%3B%26quot%3B%26gt%3BCost%26lt%3B%2Ffont%26gt%3B%26lt%3B%2Ffont%26gt%3B%22%20style%3D%22text%3Bhtml%3D1%3Bpoints%3D%5B%5D%3Balign%3Dleft%3BverticalAlign%3Dtop%3BspacingTop%3D-4%3BfontSize%3D14%3BfontFamily%3DVerdana%3B%22%20vertex%3D%221%22%20parent%3D%221%22%3E%3CmxGeometry%20x%3D%22900%22%20y%3D%22948%22%20width%3D%22300%22%20height%3D%2220%22%20as%3D%22geometry%22%2F%3E%3C%2FmxCell%3E%3CmxCell%20id%3D%224%22%20value%3D%22Status%22%20style%3D%22text%3Bhtml%3D1%3Bpoints%3D%5B%5D%3Balign%3Dleft%3BverticalAlign%3Dtop%3BspacingTop%3D-4%3BfontSize%3D14%3BfontFamily%3DVerdana%3B%22%20vertex%3D%221%22%20parent%3D%221%22%3E%3CmxGeometry%20x%3D%22900%22%20y%3D%22780%22%20width%3D%22300%22%20height%3D%2220%22%20as%3D%22geometry%22%2F%3E%3C%2FmxCell%3E%3C%2Froot%3E%3C%2FmxGraphModel%3E&lt;/span&gt;" style="line;strokeWidth=2;html=1;shadow=1;labelBackgroundColor=none;sketch=0;fillStyle=auto;strokeColor=#FFFFFF;fontFamily=Verdana;fontSize=12;fontColor=#383838;fillColor=#CCCCCC;" vertex="1" parent="1">
          <mxGeometry x="269.5" y="740" width="185" height="10" as="geometry" />
        </mxCell>
        <mxCell id="BSCxWJDylK6rhqkB42kr-51" value="Active" style="text;html=1;strokeColor=none;fillColor=none;align=left;verticalAlign=middle;whiteSpace=wrap;rounded=0;shadow=1;labelBackgroundColor=none;sketch=0;fillStyle=auto;strokeWidth=1;fontFamily=Verdana;fontSize=12;fontColor=#383838;" vertex="1" parent="1">
          <mxGeometry x="274.5" y="720" width="110" height="30" as="geometry" />
        </mxCell>
        <mxCell id="BSCxWJDylK6rhqkB42kr-52" value="&lt;span style=&quot;color: rgb(51, 51, 51);&quot;&gt;(Formula)&amp;nbsp;&lt;/span&gt;&lt;span style=&quot;border-color: var(--border-color); color: rgb(51, 51, 51);&quot;&gt;Calculated&lt;br style=&quot;border-color: var(--border-color);&quot;&gt;based on Career Level Resource&lt;/span&gt;" style="text;html=1;strokeColor=none;fillColor=none;align=left;verticalAlign=middle;whiteSpace=wrap;rounded=0;shadow=1;labelBackgroundColor=none;sketch=0;fillStyle=auto;strokeWidth=1;fontFamily=Verdana;fontSize=12;fontColor=#383838;" vertex="1" parent="1">
          <mxGeometry x="509.5" y="720" width="200" height="30" as="geometry" />
        </mxCell>
        <mxCell id="BSCxWJDylK6rhqkB42kr-53" value="" style="group" vertex="1" connectable="0" parent="1">
          <mxGeometry x="269.5" y="212" width="510" height="95" as="geometry" />
        </mxCell>
        <mxCell id="BSCxWJDylK6rhqkB42kr-54" value="Details" style="text;html=1;points=[];align=left;verticalAlign=top;spacingTop=-4;fontSize=14;fontFamily=Verdana;fillColor=#f5f5f5;fontColor=#333333;strokeColor=#666666;movable=1;resizable=1;rotatable=1;deletable=1;editable=1;connectable=1;" vertex="1" parent="BSCxWJDylK6rhqkB42kr-53">
          <mxGeometry y="75" width="510" height="20" as="geometry" />
        </mxCell>
        <mxCell id="BSCxWJDylK6rhqkB42kr-55" value="" style="rounded=0;whiteSpace=wrap;html=1;shadow=1;sketch=0;fillStyle=auto;strokeColor=#666666;strokeWidth=1;fontFamily=Verdana;fontSize=12;fontColor=#333333;fillColor=#f5f5f5;movable=1;resizable=1;rotatable=1;deletable=1;editable=1;connectable=1;" vertex="1" parent="BSCxWJDylK6rhqkB42kr-53">
          <mxGeometry width="510" height="60" as="geometry" />
        </mxCell>
        <mxCell id="BSCxWJDylK6rhqkB42kr-56" value="Resource&lt;br&gt;&lt;font style=&quot;font-size: 17px;&quot; color=&quot;#bfbfbf&quot;&gt;MÃ¡rcia Couto&lt;/font&gt;" style="text;html=1;points=[];align=left;verticalAlign=top;spacingTop=-4;fontSize=20;fontFamily=Verdana;strokeWidth=1;fontStyle=1;movable=1;resizable=1;rotatable=1;deletable=1;editable=1;connectable=1;" vertex="1" parent="BSCxWJDylK6rhqkB42kr-53">
          <mxGeometry x="1" y="1" width="210" height="60" as="geometry" />
        </mxCell>
        <mxCell id="BSCxWJDylK6rhqkB42kr-57" value="" style="group;fontFamily=Verdana;" vertex="1" connectable="0" parent="1">
          <mxGeometry x="510.5" y="332" width="185" height="30" as="geometry" />
        </mxCell>
        <mxCell id="BSCxWJDylK6rhqkB42kr-58" value="" style="line;strokeWidth=2;html=1;shadow=1;labelBackgroundColor=none;sketch=0;fillStyle=auto;strokeColor=#FFFFFF;fontFamily=Verdana;fontSize=12;fontColor=#383838;fillColor=#CCCCCC;" vertex="1" parent="BSCxWJDylK6rhqkB42kr-57">
          <mxGeometry y="19" width="185" height="10" as="geometry" />
        </mxCell>
        <mxCell id="BSCxWJDylK6rhqkB42kr-59" value="" style="sketch=0;pointerEvents=1;shadow=0;dashed=0;html=1;strokeColor=none;fillColor=#CCCCCC;labelPosition=center;verticalLabelPosition=bottom;verticalAlign=top;outlineConnect=0;align=center;shape=mxgraph.office.concepts.writing_pencil;labelBackgroundColor=none;fillStyle=auto;strokeWidth=1;fontFamily=Verdana;fontSize=12;fontColor=none;noLabel=1;" vertex="1" parent="BSCxWJDylK6rhqkB42kr-57">
          <mxGeometry x="166" y="5" width="19" height="20" as="geometry" />
        </mxCell>
        <mxCell id="BSCxWJDylK6rhqkB42kr-60" value="Planned" style="text;html=1;strokeColor=none;fillColor=none;align=left;verticalAlign=middle;whiteSpace=wrap;rounded=0;shadow=1;labelBackgroundColor=none;sketch=0;fillStyle=auto;strokeWidth=1;fontFamily=Verdana;fontSize=12;fontColor=#383838;" vertex="1" parent="BSCxWJDylK6rhqkB42kr-57">
          <mxGeometry y="-1" width="110" height="30" as="geometry" />
        </mxCell>
        <mxCell id="BSCxWJDylK6rhqkB42kr-61" value="&lt;font style=&quot;font-size: 12px;&quot;&gt;Actual &lt;font style=&quot;font-size: 12px;&quot;&gt;Cost&lt;/font&gt;&lt;/font&gt;" style="text;html=1;points=[];align=left;verticalAlign=top;spacingTop=-4;fontSize=12;fontFamily=Verdana;" vertex="1" parent="1">
          <mxGeometry x="270.5" y="763" width="300" height="20" as="geometry" />
        </mxCell>
        <mxCell id="BSCxWJDylK6rhqkB42kr-62" value="&lt;span style=&quot;color: rgba(0, 0, 0, 0); font-size: 0px; text-align: start;&quot;&gt;%3CmxGraphModel%3E%3Croot%3E%3CmxCell%20id%3D%220%22%2F%3E%3CmxCell%20id%3D%221%22%20parent%3D%220%22%2F%3E%3CmxCell%20id%3D%222%22%20value%3D%22Actual%20Bill%20Code%26lt%3Bspan%20style%3D%26quot%3Bfont-size%3A%2014px%3B%26quot%3B%26gt%3B%26amp%3Bnbsp%3B%26lt%3B%2Fspan%26gt%3B%22%20style%3D%22text%3Bhtml%3D1%3Bpoints%3D%5B%5D%3Balign%3Dleft%3BverticalAlign%3Dtop%3BspacingTop%3D-4%3BfontSize%3D14%3BfontFamily%3DVerdana%3B%22%20vertex%3D%221%22%20parent%3D%221%22%3E%3CmxGeometry%20x%3D%22900%22%20y%3D%22869%22%20width%3D%22300%22%20height%3D%2220%22%20as%3D%22geometry%22%2F%3E%3C%2FmxCell%3E%3CmxCell%20id%3D%223%22%20value%3D%22%26lt%3Bfont%20style%3D%26quot%3Bfont-size%3A%2014px%3B%26quot%3B%26gt%3BActual%20%26lt%3Bfont%20style%3D%26quot%3Bfont-size%3A%2014px%3B%26quot%3B%26gt%3BCost%26lt%3B%2Ffont%26gt%3B%26lt%3B%2Ffont%26gt%3B%22%20style%3D%22text%3Bhtml%3D1%3Bpoints%3D%5B%5D%3Balign%3Dleft%3BverticalAlign%3Dtop%3BspacingTop%3D-4%3BfontSize%3D14%3BfontFamily%3DVerdana%3B%22%20vertex%3D%221%22%20parent%3D%221%22%3E%3CmxGeometry%20x%3D%22900%22%20y%3D%22948%22%20width%3D%22300%22%20height%3D%2220%22%20as%3D%22geometry%22%2F%3E%3C%2FmxCell%3E%3CmxCell%20id%3D%224%22%20value%3D%22Status%22%20style%3D%22text%3Bhtml%3D1%3Bpoints%3D%5B%5D%3Balign%3Dleft%3BverticalAlign%3Dtop%3BspacingTop%3D-4%3BfontSize%3D14%3BfontFamily%3DVerdana%3B%22%20vertex%3D%221%22%20parent%3D%221%22%3E%3CmxGeometry%20x%3D%22900%22%20y%3D%22780%22%20width%3D%22300%22%20height%3D%2220%22%20as%3D%22geometry%22%2F%3E%3C%2FmxCell%3E%3C%2Froot%3E%3C%2FmxGraphModel%3E&lt;/span&gt;" style="line;strokeWidth=2;html=1;shadow=1;labelBackgroundColor=none;sketch=0;fillStyle=auto;strokeColor=#FFFFFF;fontFamily=Verdana;fontSize=12;fontColor=#383838;fillColor=#CCCCCC;" vertex="1" parent="1">
          <mxGeometry x="270.5" y="803" width="185" height="10" as="geometry" />
        </mxCell>
        <mxCell id="BSCxWJDylK6rhqkB42kr-63" value="&lt;span style=&quot;color: rgb(51, 51, 51);&quot;&gt;(Formula)&amp;nbsp;&lt;/span&gt;&lt;span style=&quot;border-color: var(--border-color); color: rgb(51, 51, 51);&quot;&gt;Calculated&lt;br style=&quot;border-color: var(--border-color);&quot;&gt;based on Career Level Resource&lt;/span&gt;" style="text;html=1;strokeColor=none;fillColor=none;align=left;verticalAlign=middle;whiteSpace=wrap;rounded=0;shadow=1;labelBackgroundColor=none;sketch=0;fillStyle=auto;strokeWidth=1;fontFamily=Verdana;fontSize=12;fontColor=#383838;" vertex="1" parent="1">
          <mxGeometry x="269.5" y="783" width="200" height="30" as="geometry" />
        </mxCell>
        <mxCell id="BSCxWJDylK6rhqkB42kr-64" value="" style="group;fontFamily=Verdana;" vertex="1" connectable="0" parent="1">
          <mxGeometry x="509.5" y="393" width="185" height="30" as="geometry" />
        </mxCell>
        <mxCell id="BSCxWJDylK6rhqkB42kr-65" value="" style="line;strokeWidth=2;html=1;shadow=1;labelBackgroundColor=none;sketch=0;fillStyle=auto;strokeColor=#FFFFFF;fontFamily=Verdana;fontSize=12;fontColor=#383838;fillColor=#CCCCCC;" vertex="1" parent="BSCxWJDylK6rhqkB42kr-64">
          <mxGeometry y="20" width="185" height="10" as="geometry" />
        </mxCell>
        <mxCell id="BSCxWJDylK6rhqkB42kr-66" value="" style="sketch=0;pointerEvents=1;shadow=0;dashed=0;html=1;strokeColor=none;fillColor=#CCCCCC;labelPosition=center;verticalLabelPosition=bottom;verticalAlign=top;outlineConnect=0;align=center;shape=mxgraph.office.concepts.writing_pencil;labelBackgroundColor=none;fillStyle=auto;strokeWidth=1;fontFamily=Verdana;fontSize=12;fontColor=none;noLabel=1;" vertex="1" parent="BSCxWJDylK6rhqkB42kr-64">
          <mxGeometry x="166" y="5" width="19" height="20" as="geometry" />
        </mxCell>
        <mxCell id="BSCxWJDylK6rhqkB42kr-67" value="" style="group;fontFamily=Verdana;" vertex="1" connectable="0" parent="1">
          <mxGeometry x="269.5" y="654" width="185" height="30" as="geometry" />
        </mxCell>
        <mxCell id="BSCxWJDylK6rhqkB42kr-68" value="24/10/2014" style="text;html=1;strokeColor=none;fillColor=none;align=left;verticalAlign=middle;whiteSpace=wrap;rounded=0;shadow=1;labelBackgroundColor=none;sketch=0;fillStyle=auto;strokeWidth=1;fontFamily=Verdana;fontSize=12;fontColor=#383838;" vertex="1" parent="BSCxWJDylK6rhqkB42kr-67">
          <mxGeometry x="1" width="110" height="30" as="geometry" />
        </mxCell>
        <mxCell id="BSCxWJDylK6rhqkB42kr-69" value="" style="line;strokeWidth=2;html=1;shadow=1;labelBackgroundColor=none;sketch=0;fillStyle=auto;strokeColor=#FFFFFF;fontFamily=Verdana;fontSize=12;fontColor=#383838;fillColor=#CCCCCC;" vertex="1" parent="BSCxWJDylK6rhqkB42kr-67">
          <mxGeometry y="19" width="185" height="10" as="geometry" />
        </mxCell>
        <mxCell id="BSCxWJDylK6rhqkB42kr-70" value="" style="sketch=0;pointerEvents=1;shadow=0;dashed=0;html=1;strokeColor=none;fillColor=#CCCCCC;labelPosition=center;verticalLabelPosition=bottom;verticalAlign=top;outlineConnect=0;align=center;shape=mxgraph.office.concepts.writing_pencil;labelBackgroundColor=none;fillStyle=auto;strokeWidth=1;fontFamily=Verdana;fontSize=12;fontColor=none;noLabel=1;" vertex="1" parent="BSCxWJDylK6rhqkB42kr-67">
          <mxGeometry x="166" y="5" width="19" height="20" as="geometry" />
        </mxCell>
        <mxCell id="BSCxWJDylK6rhqkB42kr-71" value="Cancel Resource" style="text;html=1;points=[];align=left;verticalAlign=top;spacingTop=-4;fontSize=12;fontFamily=Verdana;movable=1;resizable=1;rotatable=1;deletable=1;editable=1;connectable=1;" vertex="1" parent="1">
          <mxGeometry x="530.5" y="763" width="170" height="20" as="geometry" />
        </mxCell>
        <mxCell id="BSCxWJDylK6rhqkB42kr-72" value="" style="dashed=0;labelPosition=right;align=left;shape=mxgraph.gmdl.checkbox;strokeColor=#B0B0B0;fillColor=none;strokeWidth=2;aspect=fixed;sketch=0;fontFamily=Verdana;fontSize=14;" vertex="1" parent="1">
          <mxGeometry x="511.5" y="765" width="16" height="16" as="geometry" />
        </mxCell>
      </root>
    </mxGraphModel>
  </diagram>
  <diagram id="ROb3cHfJpz_vW2QbhyQP" name="PÃ¡gina-4">
    <mxGraphModel dx="1050" dy="541" grid="1" gridSize="10" guides="1" tooltips="1" connect="1" arrows="1" fold="1" page="1" pageScale="1" pageWidth="827" pageHeight="1169" math="0" shadow="0">
      <root>
        <mxCell id="0" />
        <mxCell id="1" parent="0" />
        <mxCell id="3c3EwXl_xDAgXFGJLcUo-1" value="" style="rounded=0;whiteSpace=wrap;html=1;strokeWidth=1;fontSize=17;fontColor=#FF0000;movable=1;resizable=1;rotatable=1;deletable=1;editable=1;connectable=1;" vertex="1" parent="1">
          <mxGeometry x="130" y="290" width="580" height="640" as="geometry" />
        </mxCell>
        <mxCell id="3c3EwXl_xDAgXFGJLcUo-2" value="Resource Name" style="text;html=1;points=[];align=left;verticalAlign=top;spacingTop=-4;fontSize=12;fontFamily=Verdana;movable=1;resizable=1;rotatable=1;deletable=1;editable=1;connectable=1;" vertex="1" parent="1">
          <mxGeometry x="175" y="420" width="170" height="20" as="geometry" />
        </mxCell>
        <mxCell id="3c3EwXl_xDAgXFGJLcUo-3" value="EnterpriseID" style="text;html=1;points=[];align=left;verticalAlign=top;spacingTop=-4;fontSize=12;fontFamily=Verdana;movable=1;resizable=1;rotatable=1;deletable=1;editable=1;connectable=1;" vertex="1" parent="1">
          <mxGeometry x="411" y="482" width="170" height="20" as="geometry" />
        </mxCell>
        <mxCell id="3c3EwXl_xDAgXFGJLcUo-4" value="Personnel Number" style="text;html=1;points=[];align=left;verticalAlign=top;spacingTop=-4;fontSize=12;fontFamily=Verdana;movable=1;resizable=1;rotatable=1;deletable=1;editable=1;connectable=1;" vertex="1" parent="1">
          <mxGeometry x="175" y="482" width="170" height="20" as="geometry" />
        </mxCell>
        <mxCell id="3c3EwXl_xDAgXFGJLcUo-5" value="Organization" style="text;html=1;points=[];align=left;verticalAlign=top;spacingTop=-4;fontSize=12;fontFamily=Verdana;movable=1;resizable=1;rotatable=1;deletable=1;editable=1;connectable=1;" vertex="1" parent="1">
          <mxGeometry x="171" y="548" width="170" height="20" as="geometry" />
        </mxCell>
        <mxCell id="3c3EwXl_xDAgXFGJLcUo-6" value="Location" style="text;html=1;points=[];align=left;verticalAlign=top;spacingTop=-4;fontSize=12;fontFamily=Verdana;movable=1;resizable=1;rotatable=1;deletable=1;editable=1;connectable=1;" vertex="1" parent="1">
          <mxGeometry x="411" y="548" width="170" height="20" as="geometry" />
        </mxCell>
        <mxCell id="3c3EwXl_xDAgXFGJLcUo-7" value="Type" style="text;html=1;points=[];align=left;verticalAlign=top;spacingTop=-4;fontSize=12;fontFamily=Verdana;movable=1;resizable=1;rotatable=1;deletable=1;editable=1;connectable=1;" vertex="1" parent="1">
          <mxGeometry x="411" y="421" width="170" height="20" as="geometry" />
        </mxCell>
        <mxCell id="3c3EwXl_xDAgXFGJLcUo-8" value="Profile" style="text;html=1;points=[];align=left;verticalAlign=top;spacingTop=-4;fontSize=12;fontFamily=Verdana;movable=1;resizable=1;rotatable=1;deletable=1;editable=1;connectable=1;" vertex="1" parent="1">
          <mxGeometry x="411" y="611" width="170" height="20" as="geometry" />
        </mxCell>
        <mxCell id="3c3EwXl_xDAgXFGJLcUo-9" value="&lt;font style=&quot;font-size: 12px;&quot;&gt;Career Level Name&amp;nbsp;&lt;/font&gt;" style="text;html=1;points=[];align=left;verticalAlign=top;spacingTop=-4;fontSize=12;fontFamily=Verdana;movable=1;resizable=1;rotatable=1;deletable=1;editable=1;connectable=1;" vertex="1" parent="1">
          <mxGeometry x="171" y="611" width="170" height="20" as="geometry" />
        </mxCell>
        <mxCell id="3c3EwXl_xDAgXFGJLcUo-10" value="&lt;font style=&quot;font-size: 12px;&quot;&gt;Actual Assignment Type&amp;nbsp;&lt;/font&gt;" style="text;html=1;points=[];align=left;verticalAlign=top;spacingTop=-4;fontSize=12;fontFamily=Verdana;movable=1;resizable=1;rotatable=1;deletable=1;editable=1;connectable=1;" vertex="1" parent="1">
          <mxGeometry x="411" y="676" width="300" height="20" as="geometry" />
        </mxCell>
        <mxCell id="3c3EwXl_xDAgXFGJLcUo-11" value="&lt;font style=&quot;font-size: 12px;&quot;&gt;Contract&lt;/font&gt;" style="text;html=1;points=[];align=left;verticalAlign=top;spacingTop=-4;fontSize=12;fontFamily=Verdana;movable=1;resizable=1;rotatable=1;deletable=1;editable=1;connectable=1;" vertex="1" parent="1">
          <mxGeometry x="171" y="676" width="200" height="20" as="geometry" />
        </mxCell>
        <mxCell id="3c3EwXl_xDAgXFGJLcUo-12" value="&lt;font style=&quot;font-size: 12px;&quot;&gt;Onboard date&lt;/font&gt;" style="text;html=1;points=[];align=left;verticalAlign=top;spacingTop=-4;fontSize=12;fontFamily=Verdana;movable=1;resizable=1;rotatable=1;deletable=1;editable=1;connectable=1;" vertex="1" parent="1">
          <mxGeometry x="171" y="741.5" width="300" height="20" as="geometry" />
        </mxCell>
        <mxCell id="3c3EwXl_xDAgXFGJLcUo-13" value="&lt;font style=&quot;font-size: 12px;&quot;&gt;&lt;font style=&quot;font-size: 12px;&quot;&gt;Rolloff&amp;nbsp;&lt;/font&gt;date&lt;/font&gt;" style="text;html=1;points=[];align=left;verticalAlign=top;spacingTop=-4;fontSize=12;fontFamily=Verdana;movable=1;resizable=1;rotatable=1;deletable=1;editable=1;connectable=1;" vertex="1" parent="1">
          <mxGeometry x="411" y="738" width="300" height="20" as="geometry" />
        </mxCell>
        <mxCell id="3c3EwXl_xDAgXFGJLcUo-14" value="" style="group;align=left;fontFamily=Verdana;" vertex="1" connectable="0" parent="1">
          <mxGeometry x="175" y="436" width="185" height="30" as="geometry" />
        </mxCell>
        <mxCell id="3c3EwXl_xDAgXFGJLcUo-15" value="MÃ¡rcia Couto" style="text;html=1;strokeColor=none;fillColor=none;align=left;verticalAlign=middle;whiteSpace=wrap;rounded=0;shadow=1;labelBackgroundColor=none;sketch=0;fillStyle=auto;strokeWidth=1;fontFamily=Verdana;fontSize=12;fontColor=#383838;" vertex="1" parent="3c3EwXl_xDAgXFGJLcUo-14">
          <mxGeometry x="1" width="110" height="30" as="geometry" />
        </mxCell>
        <mxCell id="3c3EwXl_xDAgXFGJLcUo-16" value="" style="line;strokeWidth=2;html=1;shadow=1;labelBackgroundColor=none;sketch=0;fillStyle=auto;strokeColor=#FFFFFF;fontFamily=Verdana;fontSize=12;fontColor=#383838;fillColor=#CCCCCC;" vertex="1" parent="3c3EwXl_xDAgXFGJLcUo-14">
          <mxGeometry y="19" width="185" height="10" as="geometry" />
        </mxCell>
        <mxCell id="3c3EwXl_xDAgXFGJLcUo-17" value="" style="sketch=0;pointerEvents=1;shadow=0;dashed=0;html=1;strokeColor=none;fillColor=#CCCCCC;labelPosition=center;verticalLabelPosition=bottom;verticalAlign=top;outlineConnect=0;align=center;shape=mxgraph.office.concepts.writing_pencil;labelBackgroundColor=none;fillStyle=auto;strokeWidth=1;fontFamily=Verdana;fontSize=12;fontColor=none;noLabel=1;" vertex="1" parent="3c3EwXl_xDAgXFGJLcUo-14">
          <mxGeometry x="166" y="5" width="19" height="20" as="geometry" />
        </mxCell>
        <mxCell id="3c3EwXl_xDAgXFGJLcUo-18" value="" style="group;fontFamily=Verdana;" vertex="1" connectable="0" parent="1">
          <mxGeometry x="175" y="497" width="185" height="30" as="geometry" />
        </mxCell>
        <mxCell id="3c3EwXl_xDAgXFGJLcUo-19" value="007" style="text;html=1;strokeColor=none;fillColor=none;align=left;verticalAlign=middle;whiteSpace=wrap;rounded=0;shadow=1;labelBackgroundColor=none;sketch=0;fillStyle=auto;strokeWidth=1;fontFamily=Verdana;fontSize=12;fontColor=#383838;" vertex="1" parent="3c3EwXl_xDAgXFGJLcUo-18">
          <mxGeometry x="1" width="110" height="30" as="geometry" />
        </mxCell>
        <mxCell id="3c3EwXl_xDAgXFGJLcUo-20" value="" style="line;strokeWidth=2;html=1;shadow=1;labelBackgroundColor=none;sketch=0;fillStyle=auto;strokeColor=#FFFFFF;fontFamily=Verdana;fontSize=12;fontColor=#383838;fillColor=#CCCCCC;" vertex="1" parent="3c3EwXl_xDAgXFGJLcUo-18">
          <mxGeometry y="19" width="185" height="10" as="geometry" />
        </mxCell>
        <mxCell id="3c3EwXl_xDAgXFGJLcUo-21" value="" style="sketch=0;pointerEvents=1;shadow=0;dashed=0;html=1;strokeColor=none;fillColor=#CCCCCC;labelPosition=center;verticalLabelPosition=bottom;verticalAlign=top;outlineConnect=0;align=center;shape=mxgraph.office.concepts.writing_pencil;labelBackgroundColor=none;fillStyle=auto;strokeWidth=1;fontFamily=Verdana;fontSize=12;fontColor=none;noLabel=1;" vertex="1" parent="3c3EwXl_xDAgXFGJLcUo-18">
          <mxGeometry x="166" y="5" width="19" height="20" as="geometry" />
        </mxCell>
        <mxCell id="3c3EwXl_xDAgXFGJLcUo-22" value="" style="group;fontFamily=Verdana;" vertex="1" connectable="0" parent="1">
          <mxGeometry x="171" y="564" width="185" height="30" as="geometry" />
        </mxCell>
        <mxCell id="3c3EwXl_xDAgXFGJLcUo-23" value="Accenture" style="text;html=1;strokeColor=none;fillColor=none;align=left;verticalAlign=middle;whiteSpace=wrap;rounded=0;shadow=1;labelBackgroundColor=none;sketch=0;fillStyle=auto;strokeWidth=1;fontFamily=Verdana;fontSize=12;fontColor=#383838;" vertex="1" parent="3c3EwXl_xDAgXFGJLcUo-22">
          <mxGeometry x="1" width="110" height="30" as="geometry" />
        </mxCell>
        <mxCell id="3c3EwXl_xDAgXFGJLcUo-24" value="" style="line;strokeWidth=2;html=1;shadow=1;labelBackgroundColor=none;sketch=0;fillStyle=auto;strokeColor=#FFFFFF;fontFamily=Verdana;fontSize=12;fontColor=#383838;fillColor=#CCCCCC;" vertex="1" parent="3c3EwXl_xDAgXFGJLcUo-22">
          <mxGeometry y="19" width="185" height="10" as="geometry" />
        </mxCell>
        <mxCell id="3c3EwXl_xDAgXFGJLcUo-25" value="" style="sketch=0;pointerEvents=1;shadow=0;dashed=0;html=1;strokeColor=none;fillColor=#CCCCCC;labelPosition=center;verticalLabelPosition=bottom;verticalAlign=top;outlineConnect=0;align=center;shape=mxgraph.office.concepts.writing_pencil;labelBackgroundColor=none;fillStyle=auto;strokeWidth=1;fontFamily=Verdana;fontSize=12;fontColor=none;noLabel=1;" vertex="1" parent="3c3EwXl_xDAgXFGJLcUo-22">
          <mxGeometry x="166" y="5" width="19" height="20" as="geometry" />
        </mxCell>
        <mxCell id="3c3EwXl_xDAgXFGJLcUo-26" value="" style="group;fontFamily=Verdana;" vertex="1" connectable="0" parent="1">
          <mxGeometry x="170" y="627" width="185" height="30" as="geometry" />
        </mxCell>
        <mxCell id="3c3EwXl_xDAgXFGJLcUo-27" value="Test" style="text;html=1;strokeColor=none;fillColor=none;align=left;verticalAlign=middle;whiteSpace=wrap;rounded=0;shadow=1;labelBackgroundColor=none;sketch=0;fillStyle=auto;strokeWidth=1;fontFamily=Verdana;fontSize=12;fontColor=#383838;" vertex="1" parent="3c3EwXl_xDAgXFGJLcUo-26">
          <mxGeometry x="1" width="110" height="30" as="geometry" />
        </mxCell>
        <mxCell id="3c3EwXl_xDAgXFGJLcUo-28" value="" style="line;strokeWidth=2;html=1;shadow=1;labelBackgroundColor=none;sketch=0;fillStyle=auto;strokeColor=#FFFFFF;fontFamily=Verdana;fontSize=12;fontColor=#383838;fillColor=#CCCCCC;" vertex="1" parent="3c3EwXl_xDAgXFGJLcUo-26">
          <mxGeometry y="19" width="185" height="10" as="geometry" />
        </mxCell>
        <mxCell id="3c3EwXl_xDAgXFGJLcUo-29" value="" style="sketch=0;pointerEvents=1;shadow=0;dashed=0;html=1;strokeColor=none;fillColor=#CCCCCC;labelPosition=center;verticalLabelPosition=bottom;verticalAlign=top;outlineConnect=0;align=center;shape=mxgraph.office.concepts.writing_pencil;labelBackgroundColor=none;fillStyle=auto;strokeWidth=1;fontFamily=Verdana;fontSize=12;fontColor=none;noLabel=1;" vertex="1" parent="3c3EwXl_xDAgXFGJLcUo-26">
          <mxGeometry x="166" y="5" width="19" height="20" as="geometry" />
        </mxCell>
        <mxCell id="3c3EwXl_xDAgXFGJLcUo-30" value="" style="group;fontFamily=Verdana;" vertex="1" connectable="0" parent="1">
          <mxGeometry x="411.5" y="564" width="185" height="30" as="geometry" />
        </mxCell>
        <mxCell id="3c3EwXl_xDAgXFGJLcUo-31" value="Braga" style="text;html=1;strokeColor=none;fillColor=none;align=left;verticalAlign=middle;whiteSpace=wrap;rounded=0;shadow=1;labelBackgroundColor=none;sketch=0;fillStyle=auto;strokeWidth=1;fontFamily=Verdana;fontSize=12;fontColor=#383838;" vertex="1" parent="3c3EwXl_xDAgXFGJLcUo-30">
          <mxGeometry x="1" width="110" height="30" as="geometry" />
        </mxCell>
        <mxCell id="3c3EwXl_xDAgXFGJLcUo-32" value="" style="line;strokeWidth=2;html=1;shadow=1;labelBackgroundColor=none;sketch=0;fillStyle=auto;strokeColor=#FFFFFF;fontFamily=Verdana;fontSize=12;fontColor=#383838;fillColor=#CCCCCC;" vertex="1" parent="3c3EwXl_xDAgXFGJLcUo-30">
          <mxGeometry y="19" width="185" height="10" as="geometry" />
        </mxCell>
        <mxCell id="3c3EwXl_xDAgXFGJLcUo-33" value="" style="sketch=0;pointerEvents=1;shadow=0;dashed=0;html=1;strokeColor=none;fillColor=#CCCCCC;labelPosition=center;verticalLabelPosition=bottom;verticalAlign=top;outlineConnect=0;align=center;shape=mxgraph.office.concepts.writing_pencil;labelBackgroundColor=none;fillStyle=auto;strokeWidth=1;fontFamily=Verdana;fontSize=12;fontColor=none;noLabel=1;" vertex="1" parent="3c3EwXl_xDAgXFGJLcUo-30">
          <mxGeometry x="166" y="5" width="19" height="20" as="geometry" />
        </mxCell>
        <mxCell id="3c3EwXl_xDAgXFGJLcUo-34" value="" style="group;fontFamily=Verdana;" vertex="1" connectable="0" parent="1">
          <mxGeometry x="411.5" y="627" width="185" height="30" as="geometry" />
        </mxCell>
        <mxCell id="3c3EwXl_xDAgXFGJLcUo-35" value="" style="line;strokeWidth=2;html=1;shadow=1;labelBackgroundColor=none;sketch=0;fillStyle=auto;strokeColor=#FFFFFF;fontFamily=Verdana;fontSize=12;fontColor=#383838;fillColor=#CCCCCC;" vertex="1" parent="3c3EwXl_xDAgXFGJLcUo-34">
          <mxGeometry y="19" width="185" height="10" as="geometry" />
        </mxCell>
        <mxCell id="3c3EwXl_xDAgXFGJLcUo-36" value="" style="sketch=0;pointerEvents=1;shadow=0;dashed=0;html=1;strokeColor=none;fillColor=#CCCCCC;labelPosition=center;verticalLabelPosition=bottom;verticalAlign=top;outlineConnect=0;align=center;shape=mxgraph.office.concepts.writing_pencil;labelBackgroundColor=none;fillStyle=auto;strokeWidth=1;fontFamily=Verdana;fontSize=12;fontColor=none;noLabel=1;" vertex="1" parent="3c3EwXl_xDAgXFGJLcUo-34">
          <mxGeometry x="166" y="5" width="19" height="20" as="geometry" />
        </mxCell>
        <mxCell id="3c3EwXl_xDAgXFGJLcUo-37" value="" style="group;fontFamily=Verdana;" vertex="1" connectable="0" parent="1">
          <mxGeometry x="411.5" y="696" width="185" height="30" as="geometry" />
        </mxCell>
        <mxCell id="3c3EwXl_xDAgXFGJLcUo-38" value="Mockup" style="text;html=1;strokeColor=none;fillColor=none;align=left;verticalAlign=middle;whiteSpace=wrap;rounded=0;shadow=1;labelBackgroundColor=none;sketch=0;fillStyle=auto;strokeWidth=1;fontFamily=Verdana;fontSize=12;fontColor=#383838;" vertex="1" parent="3c3EwXl_xDAgXFGJLcUo-37">
          <mxGeometry x="1" width="110" height="30" as="geometry" />
        </mxCell>
        <mxCell id="3c3EwXl_xDAgXFGJLcUo-39" value="" style="line;strokeWidth=2;html=1;shadow=1;labelBackgroundColor=none;sketch=0;fillStyle=auto;strokeColor=#FFFFFF;fontFamily=Verdana;fontSize=12;fontColor=#383838;fillColor=#CCCCCC;" vertex="1" parent="3c3EwXl_xDAgXFGJLcUo-37">
          <mxGeometry y="19" width="185" height="10" as="geometry" />
        </mxCell>
        <mxCell id="3c3EwXl_xDAgXFGJLcUo-40" value="" style="sketch=0;pointerEvents=1;shadow=0;dashed=0;html=1;strokeColor=none;fillColor=#CCCCCC;labelPosition=center;verticalLabelPosition=bottom;verticalAlign=top;outlineConnect=0;align=center;shape=mxgraph.office.concepts.writing_pencil;labelBackgroundColor=none;fillStyle=auto;strokeWidth=1;fontFamily=Verdana;fontSize=12;fontColor=none;noLabel=1;" vertex="1" parent="3c3EwXl_xDAgXFGJLcUo-37">
          <mxGeometry x="166" y="5" width="19" height="20" as="geometry" />
        </mxCell>
        <mxCell id="3c3EwXl_xDAgXFGJLcUo-41" value="" style="group;fontFamily=Verdana;" vertex="1" connectable="0" parent="1">
          <mxGeometry x="170" y="696" width="185" height="30" as="geometry" />
        </mxCell>
        <mxCell id="3c3EwXl_xDAgXFGJLcUo-42" value="" style="line;strokeWidth=2;html=1;shadow=1;labelBackgroundColor=none;sketch=0;fillStyle=auto;strokeColor=#FFFFFF;fontFamily=Verdana;fontSize=12;fontColor=#383838;fillColor=#CCCCCC;" vertex="1" parent="3c3EwXl_xDAgXFGJLcUo-41">
          <mxGeometry y="19" width="185" height="10" as="geometry" />
        </mxCell>
        <mxCell id="3c3EwXl_xDAgXFGJLcUo-43" value="" style="sketch=0;pointerEvents=1;shadow=0;dashed=0;html=1;strokeColor=none;fillColor=#CCCCCC;labelPosition=center;verticalLabelPosition=bottom;verticalAlign=top;outlineConnect=0;align=center;shape=mxgraph.office.concepts.writing_pencil;labelBackgroundColor=none;fillStyle=auto;strokeWidth=1;fontFamily=Verdana;fontSize=12;fontColor=none;noLabel=1;" vertex="1" parent="3c3EwXl_xDAgXFGJLcUo-41">
          <mxGeometry x="166" y="5" width="19" height="20" as="geometry" />
        </mxCell>
        <mxCell id="3c3EwXl_xDAgXFGJLcUo-44" value="" style="group;fontFamily=Verdana;" vertex="1" connectable="0" parent="1">
          <mxGeometry x="411.5" y="758" width="185" height="30" as="geometry" />
        </mxCell>
        <mxCell id="3c3EwXl_xDAgXFGJLcUo-45" value="&lt;span style=&quot;color: rgba(0, 0, 0, 0); font-size: 0px; text-align: start;&quot;&gt;%3CmxGraphModel%3E%3Croot%3E%3CmxCell%20id%3D%220%22%2F%3E%3CmxCell%20id%3D%221%22%20parent%3D%220%22%2F%3E%3CmxCell%20id%3D%222%22%20value%3D%22Actual%20Bill%20Code%26lt%3Bspan%20style%3D%26quot%3Bfont-size%3A%2014px%3B%26quot%3B%26gt%3B%26amp%3Bnbsp%3B%26lt%3B%2Fspan%26gt%3B%22%20style%3D%22text%3Bhtml%3D1%3Bpoints%3D%5B%5D%3Balign%3Dleft%3BverticalAlign%3Dtop%3BspacingTop%3D-4%3BfontSize%3D14%3BfontFamily%3DVerdana%3B%22%20vertex%3D%221%22%20parent%3D%221%22%3E%3CmxGeometry%20x%3D%22900%22%20y%3D%22869%22%20width%3D%22300%22%20height%3D%2220%22%20as%3D%22geometry%22%2F%3E%3C%2FmxCell%3E%3CmxCell%20id%3D%223%22%20value%3D%22%26lt%3Bfont%20style%3D%26quot%3Bfont-size%3A%2014px%3B%26quot%3B%26gt%3BActual%20%26lt%3Bfont%20style%3D%26quot%3Bfont-size%3A%2014px%3B%26quot%3B%26gt%3BCost%26lt%3B%2Ffont%26gt%3B%26lt%3B%2Ffont%26gt%3B%22%20style%3D%22text%3Bhtml%3D1%3Bpoints%3D%5B%5D%3Balign%3Dleft%3BverticalAlign%3Dtop%3BspacingTop%3D-4%3BfontSize%3D14%3BfontFamily%3DVerdana%3B%22%20vertex%3D%221%22%20parent%3D%221%22%3E%3CmxGeometry%20x%3D%22900%22%20y%3D%22948%22%20width%3D%22300%22%20height%3D%2220%22%20as%3D%22geometry%22%2F%3E%3C%2FmxCell%3E%3CmxCell%20id%3D%224%22%20value%3D%22Status%22%20style%3D%22text%3Bhtml%3D1%3Bpoints%3D%5B%5D%3Balign%3Dleft%3BverticalAlign%3Dtop%3BspacingTop%3D-4%3BfontSize%3D14%3BfontFamily%3DVerdana%3B%22%20vertex%3D%221%22%20parent%3D%221%22%3E%3CmxGeometry%20x%3D%22900%22%20y%3D%22780%22%20width%3D%22300%22%20height%3D%2220%22%20as%3D%22geometry%22%2F%3E%3C%2FmxCell%3E%3C%2Froot%3E%3C%2FmxGraphModel%3E&lt;/span&gt;" style="line;strokeWidth=2;html=1;shadow=1;labelBackgroundColor=none;sketch=0;fillStyle=auto;strokeColor=#FFFFFF;fontFamily=Verdana;fontSize=12;fontColor=#383838;fillColor=#CCCCCC;" vertex="1" parent="3c3EwXl_xDAgXFGJLcUo-44">
          <mxGeometry y="19" width="185" height="10" as="geometry" />
        </mxCell>
        <mxCell id="3c3EwXl_xDAgXFGJLcUo-46" value="" style="sketch=0;pointerEvents=1;shadow=0;dashed=0;html=1;strokeColor=none;fillColor=#CCCCCC;labelPosition=center;verticalLabelPosition=bottom;verticalAlign=top;outlineConnect=0;align=center;shape=mxgraph.office.concepts.writing_pencil;labelBackgroundColor=none;fillStyle=auto;strokeWidth=1;fontFamily=Verdana;fontSize=12;fontColor=none;noLabel=1;" vertex="1" parent="3c3EwXl_xDAgXFGJLcUo-44">
          <mxGeometry x="166" y="5" width="19" height="20" as="geometry" />
        </mxCell>
        <mxCell id="3c3EwXl_xDAgXFGJLcUo-47" value="Status" style="text;html=1;points=[];align=left;verticalAlign=top;spacingTop=-4;fontSize=12;fontFamily=Verdana;" vertex="1" parent="1">
          <mxGeometry x="170" y="805" width="300" height="20" as="geometry" />
        </mxCell>
        <mxCell id="3c3EwXl_xDAgXFGJLcUo-48" value="Actual Bill Code&lt;span style=&quot;font-size: 12px;&quot;&gt;&amp;nbsp;&lt;/span&gt;" style="text;html=1;points=[];align=left;verticalAlign=top;spacingTop=-4;fontSize=12;fontFamily=Verdana;" vertex="1" parent="1">
          <mxGeometry x="410" y="805" width="300" height="20" as="geometry" />
        </mxCell>
        <mxCell id="3c3EwXl_xDAgXFGJLcUo-49" value="&lt;span style=&quot;color: rgba(0, 0, 0, 0); font-size: 0px; text-align: start;&quot;&gt;%3CmxGraphModel%3E%3Croot%3E%3CmxCell%20id%3D%220%22%2F%3E%3CmxCell%20id%3D%221%22%20parent%3D%220%22%2F%3E%3CmxCell%20id%3D%222%22%20value%3D%22Actual%20Bill%20Code%26lt%3Bspan%20style%3D%26quot%3Bfont-size%3A%2014px%3B%26quot%3B%26gt%3B%26amp%3Bnbsp%3B%26lt%3B%2Fspan%26gt%3B%22%20style%3D%22text%3Bhtml%3D1%3Bpoints%3D%5B%5D%3Balign%3Dleft%3BverticalAlign%3Dtop%3BspacingTop%3D-4%3BfontSize%3D14%3BfontFamily%3DVerdana%3B%22%20vertex%3D%221%22%20parent%3D%221%22%3E%3CmxGeometry%20x%3D%22900%22%20y%3D%22869%22%20width%3D%22300%22%20height%3D%2220%22%20as%3D%22geometry%22%2F%3E%3C%2FmxCell%3E%3CmxCell%20id%3D%223%22%20value%3D%22%26lt%3Bfont%20style%3D%26quot%3Bfont-size%3A%2014px%3B%26quot%3B%26gt%3BActual%20%26lt%3Bfont%20style%3D%26quot%3Bfont-size%3A%2014px%3B%26quot%3B%26gt%3BCost%26lt%3B%2Ffont%26gt%3B%26lt%3B%2Ffont%26gt%3B%22%20style%3D%22text%3Bhtml%3D1%3Bpoints%3D%5B%5D%3Balign%3Dleft%3BverticalAlign%3Dtop%3BspacingTop%3D-4%3BfontSize%3D14%3BfontFamily%3DVerdana%3B%22%20vertex%3D%221%22%20parent%3D%221%22%3E%3CmxGeometry%20x%3D%22900%22%20y%3D%22948%22%20width%3D%22300%22%20height%3D%2220%22%20as%3D%22geometry%22%2F%3E%3C%2FmxCell%3E%3CmxCell%20id%3D%224%22%20value%3D%22Status%22%20style%3D%22text%3Bhtml%3D1%3Bpoints%3D%5B%5D%3Balign%3Dleft%3BverticalAlign%3Dtop%3BspacingTop%3D-4%3BfontSize%3D14%3BfontFamily%3DVerdana%3B%22%20vertex%3D%221%22%20parent%3D%221%22%3E%3CmxGeometry%20x%3D%22900%22%20y%3D%22780%22%20width%3D%22300%22%20height%3D%2220%22%20as%3D%22geometry%22%2F%3E%3C%2FmxCell%3E%3C%2Froot%3E%3C%2FmxGraphModel%3E&lt;/span&gt;" style="line;strokeWidth=2;html=1;shadow=1;labelBackgroundColor=none;sketch=0;fillStyle=auto;strokeColor=#FFFFFF;fontFamily=Verdana;fontSize=12;fontColor=#383838;fillColor=#CCCCCC;" vertex="1" parent="1">
          <mxGeometry x="411" y="845" width="185" height="10" as="geometry" />
        </mxCell>
        <mxCell id="3c3EwXl_xDAgXFGJLcUo-50" value="&lt;span style=&quot;color: rgba(0, 0, 0, 0); font-size: 0px; text-align: start;&quot;&gt;%3CmxGraphModel%3E%3Croot%3E%3CmxCell%20id%3D%220%22%2F%3E%3CmxCell%20id%3D%221%22%20parent%3D%220%22%2F%3E%3CmxCell%20id%3D%222%22%20value%3D%22Actual%20Bill%20Code%26lt%3Bspan%20style%3D%26quot%3Bfont-size%3A%2014px%3B%26quot%3B%26gt%3B%26amp%3Bnbsp%3B%26lt%3B%2Fspan%26gt%3B%22%20style%3D%22text%3Bhtml%3D1%3Bpoints%3D%5B%5D%3Balign%3Dleft%3BverticalAlign%3Dtop%3BspacingTop%3D-4%3BfontSize%3D14%3BfontFamily%3DVerdana%3B%22%20vertex%3D%221%22%20parent%3D%221%22%3E%3CmxGeometry%20x%3D%22900%22%20y%3D%22869%22%20width%3D%22300%22%20height%3D%2220%22%20as%3D%22geometry%22%2F%3E%3C%2FmxCell%3E%3CmxCell%20id%3D%223%22%20value%3D%22%26lt%3Bfont%20style%3D%26quot%3Bfont-size%3A%2014px%3B%26quot%3B%26gt%3BActual%20%26lt%3Bfont%20style%3D%26quot%3Bfont-size%3A%2014px%3B%26quot%3B%26gt%3BCost%26lt%3B%2Ffont%26gt%3B%26lt%3B%2Ffont%26gt%3B%22%20style%3D%22text%3Bhtml%3D1%3Bpoints%3D%5B%5D%3Balign%3Dleft%3BverticalAlign%3Dtop%3BspacingTop%3D-4%3BfontSize%3D14%3BfontFamily%3DVerdana%3B%22%20vertex%3D%221%22%20parent%3D%221%22%3E%3CmxGeometry%20x%3D%22900%22%20y%3D%22948%22%20width%3D%22300%22%20height%3D%2220%22%20as%3D%22geometry%22%2F%3E%3C%2FmxCell%3E%3CmxCell%20id%3D%224%22%20value%3D%22Status%22%20style%3D%22text%3Bhtml%3D1%3Bpoints%3D%5B%5D%3Balign%3Dleft%3BverticalAlign%3Dtop%3BspacingTop%3D-4%3BfontSize%3D14%3BfontFamily%3DVerdana%3B%22%20vertex%3D%221%22%20parent%3D%221%22%3E%3CmxGeometry%20x%3D%22900%22%20y%3D%22780%22%20width%3D%22300%22%20height%3D%2220%22%20as%3D%22geometry%22%2F%3E%3C%2FmxCell%3E%3C%2Froot%3E%3C%2FmxGraphModel%3E&lt;/span&gt;" style="line;strokeWidth=2;html=1;shadow=1;labelBackgroundColor=none;sketch=0;fillStyle=auto;strokeColor=#FFFFFF;fontFamily=Verdana;fontSize=12;fontColor=#383838;fillColor=#CCCCCC;" vertex="1" parent="1">
          <mxGeometry x="170" y="845" width="185" height="10" as="geometry" />
        </mxCell>
        <mxCell id="3c3EwXl_xDAgXFGJLcUo-51" value="Active" style="text;html=1;strokeColor=none;fillColor=none;align=left;verticalAlign=middle;whiteSpace=wrap;rounded=0;shadow=1;labelBackgroundColor=none;sketch=0;fillStyle=auto;strokeWidth=1;fontFamily=Verdana;fontSize=12;fontColor=#383838;" vertex="1" parent="1">
          <mxGeometry x="175" y="825" width="110" height="30" as="geometry" />
        </mxCell>
        <mxCell id="3c3EwXl_xDAgXFGJLcUo-52" value="&lt;span style=&quot;color: rgb(51, 51, 51);&quot;&gt;(Formula)&amp;nbsp;&lt;/span&gt;&lt;span style=&quot;border-color: var(--border-color); color: rgb(51, 51, 51);&quot;&gt;Calculated&lt;br style=&quot;border-color: var(--border-color);&quot;&gt;based on Career Level Resource&lt;/span&gt;" style="text;html=1;strokeColor=none;fillColor=none;align=left;verticalAlign=middle;whiteSpace=wrap;rounded=0;shadow=1;labelBackgroundColor=none;sketch=0;fillStyle=auto;strokeWidth=1;fontFamily=Verdana;fontSize=12;fontColor=#383838;" vertex="1" parent="1">
          <mxGeometry x="410" y="825" width="200" height="30" as="geometry" />
        </mxCell>
        <mxCell id="3c3EwXl_xDAgXFGJLcUo-53" value="" style="group" vertex="1" connectable="0" parent="1">
          <mxGeometry x="170" y="317" width="510" height="95" as="geometry" />
        </mxCell>
        <mxCell id="3c3EwXl_xDAgXFGJLcUo-54" value="Details" style="text;html=1;points=[];align=left;verticalAlign=top;spacingTop=-4;fontSize=14;fontFamily=Verdana;fillColor=#f5f5f5;fontColor=#333333;strokeColor=#666666;movable=1;resizable=1;rotatable=1;deletable=1;editable=1;connectable=1;" vertex="1" parent="3c3EwXl_xDAgXFGJLcUo-53">
          <mxGeometry y="75" width="510" height="20" as="geometry" />
        </mxCell>
        <mxCell id="3c3EwXl_xDAgXFGJLcUo-55" value="" style="rounded=0;whiteSpace=wrap;html=1;shadow=1;sketch=0;fillStyle=auto;strokeColor=#666666;strokeWidth=1;fontFamily=Verdana;fontSize=12;fontColor=#333333;fillColor=#f5f5f5;movable=1;resizable=1;rotatable=1;deletable=1;editable=1;connectable=1;" vertex="1" parent="3c3EwXl_xDAgXFGJLcUo-53">
          <mxGeometry width="510" height="60" as="geometry" />
        </mxCell>
        <mxCell id="3c3EwXl_xDAgXFGJLcUo-56" value="Resource&lt;br&gt;&lt;font style=&quot;font-size: 17px;&quot; color=&quot;#bfbfbf&quot;&gt;MÃ¡rcia Couto&lt;/font&gt;" style="text;html=1;points=[];align=left;verticalAlign=top;spacingTop=-4;fontSize=20;fontFamily=Verdana;strokeWidth=1;fontStyle=1;movable=1;resizable=1;rotatable=1;deletable=1;editable=1;connectable=1;" vertex="1" parent="3c3EwXl_xDAgXFGJLcUo-53">
          <mxGeometry x="1" y="1" width="210" height="60" as="geometry" />
        </mxCell>
        <mxCell id="3c3EwXl_xDAgXFGJLcUo-57" value="" style="group;fontFamily=Verdana;" vertex="1" connectable="0" parent="1">
          <mxGeometry x="411" y="437" width="185" height="30" as="geometry" />
        </mxCell>
        <mxCell id="3c3EwXl_xDAgXFGJLcUo-58" value="" style="line;strokeWidth=2;html=1;shadow=1;labelBackgroundColor=none;sketch=0;fillStyle=auto;strokeColor=#FFFFFF;fontFamily=Verdana;fontSize=12;fontColor=#383838;fillColor=#CCCCCC;" vertex="1" parent="3c3EwXl_xDAgXFGJLcUo-57">
          <mxGeometry y="19" width="185" height="10" as="geometry" />
        </mxCell>
        <mxCell id="3c3EwXl_xDAgXFGJLcUo-59" value="" style="sketch=0;pointerEvents=1;shadow=0;dashed=0;html=1;strokeColor=none;fillColor=#CCCCCC;labelPosition=center;verticalLabelPosition=bottom;verticalAlign=top;outlineConnect=0;align=center;shape=mxgraph.office.concepts.writing_pencil;labelBackgroundColor=none;fillStyle=auto;strokeWidth=1;fontFamily=Verdana;fontSize=12;fontColor=none;noLabel=1;" vertex="1" parent="3c3EwXl_xDAgXFGJLcUo-57">
          <mxGeometry x="166" y="5" width="19" height="20" as="geometry" />
        </mxCell>
        <mxCell id="3c3EwXl_xDAgXFGJLcUo-60" value="Canceled" style="text;html=1;strokeColor=none;fillColor=none;align=left;verticalAlign=middle;whiteSpace=wrap;rounded=0;shadow=1;labelBackgroundColor=none;sketch=0;fillStyle=auto;strokeWidth=1;fontFamily=Verdana;fontSize=12;fontColor=#383838;" vertex="1" parent="3c3EwXl_xDAgXFGJLcUo-57">
          <mxGeometry y="-1" width="110" height="30" as="geometry" />
        </mxCell>
        <mxCell id="3c3EwXl_xDAgXFGJLcUo-61" value="&lt;font style=&quot;font-size: 12px;&quot;&gt;Actual &lt;font style=&quot;font-size: 12px;&quot;&gt;Cost&lt;/font&gt;&lt;/font&gt;" style="text;html=1;points=[];align=left;verticalAlign=top;spacingTop=-4;fontSize=12;fontFamily=Verdana;" vertex="1" parent="1">
          <mxGeometry x="171" y="868" width="300" height="20" as="geometry" />
        </mxCell>
        <mxCell id="3c3EwXl_xDAgXFGJLcUo-62" value="&lt;span style=&quot;color: rgba(0, 0, 0, 0); font-size: 0px; text-align: start;&quot;&gt;%3CmxGraphModel%3E%3Croot%3E%3CmxCell%20id%3D%220%22%2F%3E%3CmxCell%20id%3D%221%22%20parent%3D%220%22%2F%3E%3CmxCell%20id%3D%222%22%20value%3D%22Actual%20Bill%20Code%26lt%3Bspan%20style%3D%26quot%3Bfont-size%3A%2014px%3B%26quot%3B%26gt%3B%26amp%3Bnbsp%3B%26lt%3B%2Fspan%26gt%3B%22%20style%3D%22text%3Bhtml%3D1%3Bpoints%3D%5B%5D%3Balign%3Dleft%3BverticalAlign%3Dtop%3BspacingTop%3D-4%3BfontSize%3D14%3BfontFamily%3DVerdana%3B%22%20vertex%3D%221%22%20parent%3D%221%22%3E%3CmxGeometry%20x%3D%22900%22%20y%3D%22869%22%20width%3D%22300%22%20height%3D%2220%22%20as%3D%22geometry%22%2F%3E%3C%2FmxCell%3E%3CmxCell%20id%3D%223%22%20value%3D%22%26lt%3Bfont%20style%3D%26quot%3Bfont-size%3A%2014px%3B%26quot%3B%26gt%3BActual%20%26lt%3Bfont%20style%3D%26quot%3Bfont-size%3A%2014px%3B%26quot%3B%26gt%3BCost%26lt%3B%2Ffont%26gt%3B%26lt%3B%2Ffont%26gt%3B%22%20style%3D%22text%3Bhtml%3D1%3Bpoints%3D%5B%5D%3Balign%3Dleft%3BverticalAlign%3Dtop%3BspacingTop%3D-4%3BfontSize%3D14%3BfontFamily%3DVerdana%3B%22%20vertex%3D%221%22%20parent%3D%221%22%3E%3CmxGeometry%20x%3D%22900%22%20y%3D%22948%22%20width%3D%22300%22%20height%3D%2220%22%20as%3D%22geometry%22%2F%3E%3C%2FmxCell%3E%3CmxCell%20id%3D%224%22%20value%3D%22Status%22%20style%3D%22text%3Bhtml%3D1%3Bpoints%3D%5B%5D%3Balign%3Dleft%3BverticalAlign%3Dtop%3BspacingTop%3D-4%3BfontSize%3D14%3BfontFamily%3DVerdana%3B%22%20vertex%3D%221%22%20parent%3D%221%22%3E%3CmxGeometry%20x%3D%22900%22%20y%3D%22780%22%20width%3D%22300%22%20height%3D%2220%22%20as%3D%22geometry%22%2F%3E%3C%2FmxCell%3E%3C%2Froot%3E%3C%2FmxGraphModel%3E&lt;/span&gt;" style="line;strokeWidth=2;html=1;shadow=1;labelBackgroundColor=none;sketch=0;fillStyle=auto;strokeColor=#FFFFFF;fontFamily=Verdana;fontSize=12;fontColor=#383838;fillColor=#CCCCCC;" vertex="1" parent="1">
          <mxGeometry x="171" y="908" width="185" height="10" as="geometry" />
        </mxCell>
        <mxCell id="3c3EwXl_xDAgXFGJLcUo-63" value="&lt;span style=&quot;color: rgb(51, 51, 51);&quot;&gt;(Formula)&amp;nbsp;&lt;/span&gt;&lt;span style=&quot;border-color: var(--border-color); color: rgb(51, 51, 51);&quot;&gt;Calculated&lt;br style=&quot;border-color: var(--border-color);&quot;&gt;based on Career Level Resource&lt;/span&gt;" style="text;html=1;strokeColor=none;fillColor=none;align=left;verticalAlign=middle;whiteSpace=wrap;rounded=0;shadow=1;labelBackgroundColor=none;sketch=0;fillStyle=auto;strokeWidth=1;fontFamily=Verdana;fontSize=12;fontColor=#383838;" vertex="1" parent="1">
          <mxGeometry x="170" y="888" width="200" height="30" as="geometry" />
        </mxCell>
        <mxCell id="3c3EwXl_xDAgXFGJLcUo-64" value="" style="group;fontFamily=Verdana;" vertex="1" connectable="0" parent="1">
          <mxGeometry x="410" y="498" width="185" height="30" as="geometry" />
        </mxCell>
        <mxCell id="3c3EwXl_xDAgXFGJLcUo-65" value="" style="line;strokeWidth=2;html=1;shadow=1;labelBackgroundColor=none;sketch=0;fillStyle=auto;strokeColor=#FFFFFF;fontFamily=Verdana;fontSize=12;fontColor=#383838;fillColor=#CCCCCC;" vertex="1" parent="3c3EwXl_xDAgXFGJLcUo-64">
          <mxGeometry y="20" width="185" height="10" as="geometry" />
        </mxCell>
        <mxCell id="3c3EwXl_xDAgXFGJLcUo-66" value="" style="sketch=0;pointerEvents=1;shadow=0;dashed=0;html=1;strokeColor=none;fillColor=#CCCCCC;labelPosition=center;verticalLabelPosition=bottom;verticalAlign=top;outlineConnect=0;align=center;shape=mxgraph.office.concepts.writing_pencil;labelBackgroundColor=none;fillStyle=auto;strokeWidth=1;fontFamily=Verdana;fontSize=12;fontColor=none;noLabel=1;" vertex="1" parent="3c3EwXl_xDAgXFGJLcUo-64">
          <mxGeometry x="166" y="5" width="19" height="20" as="geometry" />
        </mxCell>
        <mxCell id="3c3EwXl_xDAgXFGJLcUo-67" value="" style="group;fontFamily=Verdana;" vertex="1" connectable="0" parent="1">
          <mxGeometry x="170" y="759" width="185" height="30" as="geometry" />
        </mxCell>
        <mxCell id="3c3EwXl_xDAgXFGJLcUo-68" value="24/10/2014" style="text;html=1;strokeColor=none;fillColor=none;align=left;verticalAlign=middle;whiteSpace=wrap;rounded=0;shadow=1;labelBackgroundColor=none;sketch=0;fillStyle=auto;strokeWidth=1;fontFamily=Verdana;fontSize=12;fontColor=#383838;" vertex="1" parent="3c3EwXl_xDAgXFGJLcUo-67">
          <mxGeometry x="1" width="110" height="30" as="geometry" />
        </mxCell>
        <mxCell id="3c3EwXl_xDAgXFGJLcUo-69" value="" style="line;strokeWidth=2;html=1;shadow=1;labelBackgroundColor=none;sketch=0;fillStyle=auto;strokeColor=#FFFFFF;fontFamily=Verdana;fontSize=12;fontColor=#383838;fillColor=#CCCCCC;" vertex="1" parent="3c3EwXl_xDAgXFGJLcUo-67">
          <mxGeometry y="19" width="185" height="10" as="geometry" />
        </mxCell>
        <mxCell id="3c3EwXl_xDAgXFGJLcUo-70" value="" style="sketch=0;pointerEvents=1;shadow=0;dashed=0;html=1;strokeColor=none;fillColor=#CCCCCC;labelPosition=center;verticalLabelPosition=bottom;verticalAlign=top;outlineConnect=0;align=center;shape=mxgraph.office.concepts.writing_pencil;labelBackgroundColor=none;fillStyle=auto;strokeWidth=1;fontFamily=Verdana;fontSize=12;fontColor=none;noLabel=1;" vertex="1" parent="3c3EwXl_xDAgXFGJLcUo-67">
          <mxGeometry x="166" y="5" width="19" height="20" as="geometry" />
        </mxCell>
        <mxCell id="3c3EwXl_xDAgXFGJLcUo-71" value="Cancel Resource" style="text;html=1;points=[];align=left;verticalAlign=top;spacingTop=-4;fontSize=12;fontFamily=Verdana;movable=1;resizable=1;rotatable=1;deletable=1;editable=1;connectable=1;" vertex="1" parent="1">
          <mxGeometry x="430" y="868" width="170" height="20" as="geometry" />
        </mxCell>
        <mxCell id="3c3EwXl_xDAgXFGJLcUo-72" value="" style="dashed=0;labelPosition=right;align=left;shape=mxgraph.gmdl.checkbox;strokeColor=none;fillColor=#B0B0B0;strokeWidth=2;aspect=fixed;sketch=0;fontFamily=Verdana;fontSize=14;" vertex="1" parent="1">
          <mxGeometry x="412" y="870" width="16" height="16" as="geometry" />
        </mxCell>
        <mxCell id="3c3EwXl_xDAgXFGJLcUo-73" value="Canceled date:" style="text;html=1;points=[];align=left;verticalAlign=top;spacingTop=-4;fontSize=12;fontFamily=Verdana;movable=1;resizable=1;rotatable=1;deletable=1;editable=1;connectable=1;" vertex="1" parent="1">
          <mxGeometry x="430" y="898" width="300" height="20" as="geometry" />
        </mxCell>
        <mxCell id="3c3EwXl_xDAgXFGJLcUo-74" value="" style="group;fontFamily=Verdana;" vertex="1" connectable="0" parent="1">
          <mxGeometry x="500" y="893" width="185" height="30" as="geometry" />
        </mxCell>
        <mxCell id="3c3EwXl_xDAgXFGJLcUo-75" value="24/10/2014" style="text;html=1;strokeColor=none;fillColor=none;align=left;verticalAlign=middle;whiteSpace=wrap;rounded=0;shadow=1;labelBackgroundColor=none;sketch=0;fillStyle=auto;strokeWidth=1;fontFamily=Verdana;fontSize=12;fontColor=#383838;" vertex="1" parent="3c3EwXl_xDAgXFGJLcUo-74">
          <mxGeometry x="30" width="110" height="30" as="geometry" />
        </mxCell>
      </root>
    </mxGraphModel>
  </diagram>
</mxfile>
